<svg xmlns="http://www.w3.org/2000/svg" style="display: none;">
  
    <symbol id="icon-chat-bubble" viewBox="0 0 512 512">
      <path d="m256 110c-39 0-75 6-109 20c-34 13-61 31-81 53c-19 23-29 47-29 73c0 21 6 42 20 61c14 19 33 36 58 50l24 14l-7 28c-5 17-12 34-20 49c29-12 55-28 78-49l13-11l16 2c13 2 25 2 37 2c39 0 75-6 109-20c34-13 61-31 81-53c19-23 29-47 29-73c0-26-10-50-29-73c-20-22-47-40-81-53c-34-14-70-20-109-20z m256 146c0 33-11 64-34 92c-23 28-54 50-93 66c-40 17-83 25-129 25c-13 0-27-1-41-2c-38 33-82 56-132 69c-9 2-20 4-32 6l-2 0c-3 0-5-1-8-3c-2-2-3-5-4-8l0 0c-1-1-1-2 0-4c0-1 0-2 0-2c0-1 1-2 2-3l1-3c0 0 1-1 2-2c2-2 2-3 3-3c1-1 4-5 8-10c5-5 8-8 10-10c2-3 5-6 9-12c4-5 7-10 9-14c3-5 5-10 8-17c3-7 5-14 8-22c-30-17-54-38-71-63c-17-25-26-51-26-80c0-33 11-64 34-92c23-28 54-50 93-66c40-17 83-25 129-25c46 0 89 8 129 25c39 16 70 38 93 66c23 28 34 59 34 92z"/>
    </symbol>
  
    <symbol id="icon-arrow-left" viewBox="0 0 512 512">
      <path d="m475 256l0 37c0 10-3 18-9 25-6 8-14 11-24 11l-201 0 84 84c7 7 10 16 10 26 0 10-3 19-10 26l-22 21c-7 7-15 11-26 11-9 0-18-4-26-11l-186-186c-7-7-10-16-10-26 0-10 3-18 10-26l186-185c8-8 16-11 26-11 10 0 19 3 26 11l22 21c7 7 10 16 10 26 0 10-3 18-10 26l-84 83 201 0c10 0 18 4 24 11 6 7 9 16 9 26z"/>
    </symbol>
  
    <symbol id="icon-arrow-right" viewBox="0 0 512 512">
      <path d="m457 274c0 11-3 19-10 26l-186 186c-8 7-17 11-26 11-10 0-19-4-26-11l-22-21c-7-7-10-16-10-26 0-10 3-19 10-26l84-84-201 0c-10 0-18-3-24-11-6-7-9-15-9-25l0-37c0-10 3-19 9-26 6-7 14-11 24-11l201 0-84-84c-7-6-10-15-10-25 0-11 3-19 10-26l22-21c7-8 16-11 26-11 10 0 18 3 26 11l186 186c7 6 10 15 10 25z"/>
    </symbol>
  
    <symbol id="icon-file-text-o" viewBox="0 0 512 512">
      <path d="m456 109c5 5 10 12 14 21 4 9 5 18 5 25l0 330c0 7-2 14-8 19-5 5-11 8-19 8l-384 0c-8 0-14-3-19-8-6-5-8-12-8-19l0-458c0-7 2-14 8-19 5-5 11-8 19-8l256 0c8 0 16 2 25 6 9 4 17 8 22 13z m-127-70l0 107 108 0c-2-5-4-9-7-11l-89-90c-2-2-6-4-12-6z m110 436l0-292-119 0c-8 0-14-3-19-8-6-5-8-12-8-20l0-118-220 0 0 438z m-293-246c0-3 1-5 3-7 2-2 4-3 6-3l202 0c2 0 4 1 6 3 2 2 3 4 3 7l0 18c0 3-1 5-3 6-2 2-4 3-6 3l-202 0c-2 0-4-1-6-3-2-1-3-3-3-6z m211 64c2 0 4 0 6 2 2 2 3 4 3 7l0 18c0 3-1 5-3 7-2 1-4 2-6 2l-202 0c-2 0-4-1-6-2-2-2-3-4-3-7l0-18c0-3 1-5 3-7 2-2 4-2 6-2z m0 73c2 0 4 1 6 2 2 2 3 4 3 7l0 18c0 3-1 5-3 7-2 1-4 2-6 2l-202 0c-2 0-4-1-6-2-2-2-3-4-3-7l0-18c0-3 1-5 3-7 2-1 4-2 6-2z"/>
    </symbol>
  
    <symbol id="icon-link" viewBox="0 0 512 512">
      <path d="m434 347c0-7-2-14-8-19l-59-59c-5-6-12-8-20-8-8 0-14 3-20 9 0 0 2 2 5 5 3 3 5 5 6 6 1 1 3 3 5 6 2 2 3 4 3 7 1 2 1 5 1 8 0 7-2 14-8 19-5 5-11 8-19 8-3 0-5 0-8-1-2-1-5-2-7-4-3-1-4-3-6-4-1-1-3-3-6-6-3-3-4-5-5-5-6 5-9 12-9 20 0 8 2 15 8 20l58 59c6 5 12 8 20 8 7 0 14-3 19-8l42-41c6-6 8-12 8-20z m-201-201c0-8-2-14-8-19l-58-60c-6-5-12-8-20-8-7 0-14 3-19 8l-42 42c-6 5-8 12-8 19 0 8 2 14 8 19l59 60c5 5 12 8 20 8 8 0 14-3 20-9 0-1-2-3-5-6-3-3-5-5-6-6-1-1-3-3-5-5-2-3-3-5-3-7-1-3-1-5-1-8 0-8 2-14 8-20 5-5 11-8 19-8 3 0 5 1 8 1 2 1 5 2 7 4 3 2 4 3 6 4 1 1 3 3 6 6 3 3 4 5 5 6 6-6 9-13 9-21z m256 201c0 23-8 43-24 58l-42 42c-16 16-35 24-58 24-23 0-43-8-58-24l-59-60c-16-15-24-35-24-58 0-23 8-43 25-59l-25-25c-16 16-36 25-59 25-23 0-43-8-59-24l-59-60c-16-16-24-35-24-58 0-23 8-42 24-58l42-42c16-16 35-23 58-23 23 0 43 8 58 24l59 59c16 16 24 35 24 58 0 23-8 43-25 60l25 25c16-17 36-25 59-25 23 0 43 8 59 24l59 59c16 16 24 36 24 58z"/>
    </symbol>
  
    <symbol id="icon-home" viewBox="0 0 512 512">
      <path d="m421 283l0 138c0 5-2 9-6 12-3 4-8 6-13 6l-109 0 0-110-74 0 0 110-109 0c-5 0-10-2-13-6-4-3-6-7-6-12l0-138c0 0 0 0 0 0 0-1 0-1 0-1l164-136 165 136c0 0 0 1 0 1z m63-19l-17 21c-2 2-4 3-6 3l-1 0c-3 0-5-1-6-2l-198-165-198 165c-2 2-4 2-7 2-2 0-4-1-6-3l-17-21c-2-2-2-4-2-7 0-3 1-5 3-6l205-171c6-5 14-8 22-8 8 0 16 3 22 8l69 58 0-56c0-2 1-5 3-6 2-2 4-3 7-3l54 0c3 0 5 1 7 3 2 1 3 4 3 6l0 117 62 52c2 1 3 3 3 6 0 3 0 5-2 7z"/>
    </symbol>
  
    <symbol id="icon-meeple" viewBox="0 0 512 512">
      <path d="m512 220c3-70-166-104-173-112-4-4 8-108-83-108-91 0-79 104-83 108-7 8-176 42-173 112 3 71 92 35 112 55 16 18-79 135-89 208-4 24 3 29 26 29 43 0 83 0 120 0 17 0 23-10 32-23 19-30 42-77 55-77 13 0 36 47 55 77 9 13 15 23 32 23 37 0 77 0 120 0 23 0 30-5 26-29-10-73-105-190-89-208 20-20 109 16 112-55z"/>
    </symbol>
  
    <symbol id="icon-highfive" viewBox="0 0 512 512">
      <path d="m258 55c-4 0-7-4-7-8l-1-40c0-3 4-7 8-7 3 0 7 4 7 7l0 40c0 4-3 8-7 8z m37 8l30-27c3-3 3-7 0-9-2-3-7-4-10-1l-29 28c-3 2-4 7-1 9 3 3 8 3 10 0z m-104-36c-3 3-2 8 0 10l30 26c3 3 8 3 10 0 3-3 3-7 0-10l-30-26c-4-3-8-2-10 0z m57 80c-2 12-3 23-5 34-1 7-2 14-5 20-4 9-11 15-17 22-6 7-11 13-16 19l-2 2-2 9 23 156c5 17-30 6-30 6-7 25-10 51-24 74-10 16-21 32-31 48-5 8-9 15-17 17-10 3-23-1-26-11-8-18 10-36 21-50 7-11 14-23 22-35l13-53-15-4c-1 0-13 32-14 34-4 10-6 22-13 30-4 8-14 11-22 16-12 9-25 17-38 26-1 0-2 1-3 1-1 0-1 0-2 1-18 8-35-14-26-29 7-12 22-18 33-25 7-5 15-10 23-16l20-48c-10-3-21-5-31-8-3-1-12-1-13-6-1-5 5-11 7-15 6-10 49-77 63-100l0-1-97-43c-10-4-15-16-11-25 2-7 10-11 17-11 3 0 5 0 8 1l100 41 30 0 35-39 7-43c3-13 13-18 22-16 10 1 18 9 16 21z m-142 316z m0 1c0 0 0-1 0 0 0-1 0 0 0 0z m0-1c0 0 0 0 0 1 0-1 0-1 0-1z m5-286c0-19 16-35 36-35 9 0 18 3 25 10 6 6 10 15 10 25 0 20-16 36-36 36l0 0c-19 0-36-16-35-36z m280 85c11 17 51 82 62 98 2 4 10 13 9 17-2 5-36 12-45 14l20 48c11 8 22 15 33 23 10 6 27 15 25 29-1 15-20 25-34 16-15-10-29-20-44-29-4-3-9-5-12-9-7-5-9-14-12-21-3-8-6-16-9-24 0-1-9-23-9-23l-15 4 13 53c8 13 15 24 23 37 8 13 28 34 20 50-5 9-18 14-27 10-8-4-12-10-16-17-5-8-10-16-15-23-7-13-17-25-23-37-5-11-7-23-9-35-3-9-5-18-7-27-7 2-32 7-30-9 1-9 20-128 23-154l-2-9-2-2c-7-8-15-16-22-25-4-5-9-10-12-16-4-9-4-18-5-27-2-9-3-18-5-26 0-5 0-11 3-14 4-5 8-8 13-8 1 0 2 0 3 0 9 0 17 7 19 16l7 44 35 39 30 0 100-42c2-1 5-2 7-2 8 0 15 5 18 12 4 9-2 22-11 26z m17 202c0 0 0-1 0 0 0-1 0 0 0 0z m0-1z m0 0z m-42-250c21 0 37-16 37-36 0-19-16-35-36-35-9 0-19 3-25 10-7 6-11 16-11 25 0 20 16 36 35 36z"/>
    </symbol>
  
    <symbol id="icon-welshdragon" viewBox="0 0 512 512">
      <path d="m507 176c-1-8-2-26-2-33 0-5 2-21 2-21 0 0-26 29-31 34-6 5-29 27-29 27 0 0 9 2 14 2 5 0 14-2 14-2l-7 18c0 0-16-8-29-7-12 0-31 9-31 24-1 14 11 24 23 25 12 0 23-1 26-2 0 0-4 16-29 15-24 0-39-7-49-7-9 0-35 0-35 0 0 0 6-13 20-18 13-4 25-1 25-1 0 0-15-18-7-36 9-18 33-34 43-36 0 0-16-6-16-16 0-10 26-35 39-43l-81 32c0 0-16 0-19-12-3-12 7-31 7-31 0 0-57 37-76 49-19 13-38 28-42 32-4 4-12 13-11 25 0 11 0 26-2 29-1 2-6 8-6 8 0 0-10 2-18 4-8 2-20 4-20 4 0 0-4-8-4-10 0-2 2-7 6-7 3 0 6 0 8 1 0 0 3-5-4-9-7-5-13-5-12-13 0-9 7-6 10-4 3 1 8 4 11 6 0 0 0-9-4-13-4-4-10-4-13-11-3-7 4-10 7-9 4 1 10 4 12 4 0 0 2-5-3-10-4-6-13-6-13-10 0-4 10-5 15-4 0 0 0-4-5-7-6-3-9-3-10-4-1-2-7-11-7-11 0 0 0-5 4-9 4-3 16-11 16-11l-5-1 3-17c0 0-4 5-12 7-8 2-17 4-21 6-4 2-7 5-7 5 0 0-34-2-40-1-7 0-16 4-18 12 0 0-24 2-32 4-8 2-19 9-23 16 0 0 19-2 26-2 8 0 15 4 16 10l4 0 4 4 0-4 4 3 0-6 5 3 0-5 4 4 0-8c0 0 9 0 16 5 6 5 4 5 4 5 0 0-16 5-30 5-13 0-58 0-58 0l12-6c0 0-13-2-21-5-9-3-21-9-24-12 0 0 6 14 14 24 8 9 20 17 24 19l-5-8 48 1c0 0 0 6 1 7 1 1 1 6 4 9 0 0 0 3 0 6 0 3 4 6 4 6l7-18 4 9c0 0 3-10 9-14 6-5 11-4 11-4l3 7c0 0-5 2-7 7-3 6-2 10-2 10 0 0-5 4-6 8-1 4-1 10-1 10 0 0-5 2-7 8-3 6-2 10-2 10 0 0-6 3-6 10-2 7 0 14 0 14 0 0-6 5-6 15 0 10 4 14 6 15 0 0-2 2-3 4-1 2-2 5-2 5 0 0-2 0-4 0-1 0-3 2-3 2 0 0-1-3-4-5-3-1-9 0-9 0 0 0-2-4-5-6-3-3-6-2-9-2 0 0 0-7-2-8-2-2-4-4-7-5 0 0-1-11-3-20-2-7-6-11-6-14 0-3 4-6 7-9 3-1 5-4 6-8 1-4 0-6 1-7 0-2 2-7 1-10-1-2-3-5-5-6 0 0 0 6 0 8-2 2-4 5-4 5 0 0-2 0-4 2-2 2-4 5-4 5 0 0 0-6 1-9 2-2 2-7 1-10-1-3-3-3-3-3 0 0-1-4-5-7-4-3-11-5-11-5 0 0 5 4 6 7 1 4 1 8 1 8 0 0-2 7-3 12 0 6 2 17 2 17 0 0-5-10-6-15-2-5-6-7-7-7 0 0-4-6-7-6-3-2-7-2-10-1 0 0 6 3 7 6 2 3 2 5 2 5 0 0-3 2-2 3 1 2 1 4 3 5 0 0 0 7 2 11 2 4 9 6 9 6 0 0-1 9-2 15 0 6-1 17-1 17 0 0-3 1-5 3-1 3-4 8-7 10-2 2-4 4-3 5 2 1 2 2 2 2 0 0 1 5-3 6-3 2-5 4-8 4 0 0 8 3 10 1 3-2 6-2 6-6 0 0 3 1 5-1 2-2 2-9 4-13 2-4 6-10 6-10 0 0 4 16 10 23 6 7 8 13 15 18 6 4 21 21 25 31 5 10 7 22 7 26 0 0 7-6 9-12 2-2 3-8 3-8 0 0 6-3 14-3 7-1 17-1 17-1 0 0-1 2-2 5 0 2 1 6 1 6 0 0-5 1-6 4-2 4 0 9 0 9 0 0-6 3-7 7-1 2-1 10-1 10 0 0-6 9-11 11-5 3-17 7-26 2-10-5-13-5-16-5 0 0-5-3-10-3-5 0-10 4-9 8 0 0 4-3 7-2 3 2 5 4 5 4 0 0-1 2-1 3 0 1 1 2 1 2l-2 4c0 0-6-1-10 0-4 0-10 6-10 9 0 0 7-3 11-2 3 0 7 1 7 1 0 0 0 1 2 1 1 0 2 0 2 0l0 4c0 0-4 1-7 4-3 3-4 12-4 12 0 0 6-6 9-7 3-1 5-1 5-1 0 0 2 3 9 3 7 0 17-9 21-9 4 0 7 0 9 0 1 0 7 1 9 0 3-1 6-4 9-4 4 0 9 3 12 5 4 3 11 6 15 4 5-1 6-4 9-4 3 1 8 3 9 5 0 0 0-8-4-10-5-3-9-2-9-2 0 0-1-2-4-3-4-1-6 0-10-1-5-1-8-3-8-3 0 0 4-16 12-25 7-9 17-17 23-23 5-6 8-10 8-10 0 0 2 10 4 13 2 3 7 14 7 14 0 0 6-12 7-14 1-2 2-7 2-7 0 0 3-1 6-4 4-2 6-4 6-4 0 0 5 1 11 0 6-2 15-7 18-11 0 0 4 2 7 1 4 0 8-1 8-1 0 0-2 6 0 10 2 4 10 12 15 12 0 0 1 7 6 9 6 2 18 3 18 3 0 0 1 3 2 4 3 1 6 2 6 2 0 0-3 2-4 4-2 2-2 6-2 6 0 0-4 0-6 2-3 1-4 6-4 6 0 0-4-1-10 0-6 1-11 4-11 4 0 0-9-2-13-5-4-3-10-10-13-11-4-2-8-2-9 1 0 0-3-3-7-2-4 2-9 6-10 10 0 0 5-4 9-4 3 0 3 1 5 4 0 0 0 4 4 4 4 1 10 0 19 10 0 0-3 4-9 2-5-2-10-6-15-6-5 0-8 1-8 1 0 0-4 0-7 1-4 2-7 4-7 10 0 0 3-4 7-4 3 0 4 2 4 2 0 0 0 2 3 3 2 1 7 2 7 2l0 2c0 0-6 0-7 4 0 4 0 9 0 9 0 0 4-6 7-6 4 0 7 1 7 1 0 0 0 2 2 1 3 0 9-6 20-7 11-1 18-2 22 0 0 0 7-4 11-3 4 2 16 10 21 10 5 1 9-4 12-2 3 1 6 2 7 5 2 3 2-6-2-9-5-2-12-4-12-4 0 0-1-1-5-3-4-1-7 1-10 0-3-1-6-2-6-2 0 0 48-14 60-43l22 7c0 0 1-11-6-15-7-4-11-3-16-6-6-2-19-4-21-8-3-4-6-14-2-20 4-5 6-5 8-6 1-2 4-3 4-6 0 0 4 1 6 3 3 1 5 3 7 3 0 0 3 5 7 7 5 1 10 3 13 2 0 0 5 5 12 6 7 0 13-2 13-2 0 0 2 4 8 4 7 1 13-1 13-1 0 0 1 3 6 3 4 0 7 0 7 0 0 0 1 3 2 4 2 1 4 3 5 4 0 0-1 4-1 7 1 3 1 6 3 10 0 0-1 4-1 7 0 3 0 6 0 6 0 0-3 2-5 5-2 4-1 6 0 8 0 0-3 7-8 10-6 3-14 4-22-2-9-6-14-13-17-14-1-2-5 0-5 2 0 0-4-1-8 1-4 2-6 5-6 7 0 0 4-2 7-1 3 0 5 0 6 2 0 0-1 2-1 3 1 1 10 4 10 4 0 0-6 0-9 0-4 0-5 3-5 3 0 0-4 0-8 3-4 3-6 6-6 10 0 0 5-6 9-6 4 0 6 1 6 1 0 0-1 2 1 2 2 0 24 0 24 0 0 0-8 1-11 3-3 1-4 4-4 4 0 0-4 0-6 3-2 2-5 10-5 10 0 0 7-4 9-5 3 0 9 0 10 0 2 0 10-8 14-8 3-1 8-2 14 1 5 4 11 0 15-1 4-1 13-3 21 1 12 3 15 3 15 3 0 0 0-1 0-1 0 0 6-2 9 0 2 1 4 1 5 4 0 0-1-8-5-10-4-3-6-2-6-2 0 0 0-2-2-2-1 0-12-4-12-4 0 0-1-2-1-3-1-2-3-5-3-5 0 0 0-2 1-6 2-4 7-28 7-38 0-10-2-24-6-28l16 10c0 0 3 2 4 1 2 0 7-1 7-2-1-1-13-13-21-18-7-5-43-24-43-24 0 0 40-3 56-18 16-16 27-26 27-41-1-15-6-19-6-19l10-30c0 0 6 10 10 13 5 3 12 6 12 6 0 0-5-23-6-30z m-68 53c-8 0-13-4-13-7 0-3 5-8 13-8 9 0 16 8 16 8-2 3-7 7-16 7z"/>
    </symbol>
  
    <symbol id="icon-chevron-left" viewBox="0 0 512 512">
      <path d="m408 86l-152 152 152 151c3 4 5 8 5 13 0 5-2 10-5 13l-48 48c-3 3-8 5-13 5-5 0-9-2-12-5l-212-212c-4-4-6-8-6-13 0-5 2-10 6-13l212-212c3-4 7-6 12-6 5 0 10 2 13 6l48 47c3 4 5 8 5 13 0 5-2 9-5 13z"/>
    </symbol>
  
    <symbol id="icon-chevron-right" viewBox="0 0 512 512">
      <path d="m389 251l-212 212c-3 3-7 5-12 5-5 0-10-2-13-5l-48-48c-3-3-5-8-5-13 0-5 2-9 5-13l152-151-152-152c-3-4-5-8-5-13 0-5 2-9 5-13l48-47c3-4 8-6 13-6 5 0 9 2 12 6l212 212c4 3 6 8 6 13 0 5-2 9-6 13z"/>
    </symbol>
  
    <symbol id="icon-chevron-down" viewBox="0 0 512 512">
      <path d="m481 231l-212 212c-4 3-8 5-13 5-5 0-9-2-13-5l-212-212c-3-4-5-8-5-13 0-5 2-10 5-13l48-47c3-4 7-6 12-6 5 0 10 2 13 6l152 151 152-151c3-4 8-6 13-6 5 0 9 2 12 6l48 47c3 3 5 8 5 13 0 5-2 9-5 13z"/>
    </symbol>
  
    <symbol id="icon-chevron-up" viewBox="0 0 512 512">
      <path d="m481 380l-48 47c-3 4-7 6-12 6-5 0-10-2-13-6l-152-151-152 151c-3 4-8 6-13 6-5 0-9-2-12-6l-48-47c-3-3-5-8-5-13 0-5 2-9 5-13l212-211c4-4 8-6 13-6 5 0 9 2 13 6l212 211c3 4 5 8 5 13 0 5-2 10-5 13z"/>
    </symbol>
  
</svg>
