<svg style="position: absolute; width: 0; height: 0;" width="0" height="0" version="1.1" xmlns="http://www.w3.org/2000/svg" xmlns:xlink="http://www.w3.org/1999/xlink">
<defs>
<symbol id="icon-highfive" viewBox="0 0 30 32">
<title>highfive</title>
<path class="path1" d="M15.291 3.38v0c-0.236 0-0.449-0.213-0.449-0.449l-0.024-2.482c0-0.236 0.213-0.449 0.449-0.449v0c0.236 0 0.449 0.213 0.449 0.449l0.024 2.482c0 0.236-0.213 0.449-0.449 0.449zM17.607 3.9l1.843-1.702c0.213-0.142 0.213-0.402 0.024-0.567v0c-0.165-0.165-0.449-0.213-0.614-0.024l-1.843 1.702c-0.165 0.165-0.213 0.449-0.024 0.614v0c0.165 0.142 0.449 0.142 0.614-0.024zM11.131 1.678v0c-0.165 0.165-0.142 0.449 0.024 0.614l1.867 1.631c0.165 0.165 0.449 0.142 0.614-0.024v0c0.165-0.165 0.142-0.449-0.024-0.614l-1.867-1.631c-0.213-0.189-0.473-0.142-0.614 0.024zM14.677 6.641c-0.095 0.709-0.213 1.394-0.331 2.103-0.071 0.402-0.095 0.851-0.284 1.229-0.236 0.544-0.709 0.945-1.087 1.394-0.331 0.378-0.685 0.756-0.993 1.134l-0.095 0.142-0.142 0.544 1.465 9.666c0.284 1.064-1.867 0.378-1.914 0.402-0.378 1.56-0.614 3.191-1.465 4.561-0.638 1.016-1.3 2.009-1.938 3.025-0.284 0.449-0.52 0.922-1.063 1.064-0.614 0.165-1.371-0.095-1.607-0.709-0.473-1.087 0.638-2.222 1.3-3.12 0.473-0.685 0.922-1.418 1.371-2.151l0.827-3.309-0.945-0.236c-0.024 0-0.78 1.985-0.851 2.103-0.236 0.614-0.402 1.371-0.78 1.867-0.307 0.473-0.922 0.685-1.371 0.993-0.78 0.544-1.607 1.064-2.387 1.607-0.071 0.024-0.142 0.071-0.213 0.095-0.024 0-0.024 0-0.071 0.024-1.158 0.544-2.222-0.827-1.631-1.796 0.449-0.756 1.371-1.134 2.032-1.56 0.473-0.307 0.945-0.614 1.418-0.945l1.229-3.025c-0.614-0.165-1.253-0.307-1.867-0.473-0.236-0.071-0.756-0.071-0.827-0.378s0.307-0.685 0.449-0.922c0.378-0.614 3.001-4.798 3.876-6.239v-0.024l-6.003-2.671c-0.638-0.284-0.945-0.993-0.709-1.56 0.165-0.449 0.614-0.709 1.087-0.709 0.165 0 0.307 0.024 0.473 0.095l6.192 2.552h1.914l2.151-2.411 0.449-2.718c0.142-0.78 0.78-1.063 1.371-0.945 0.567 0.071 1.063 0.567 0.969 1.3zM5.861 26.257v0 0zM5.861 26.281c0 0 0-0.024 0 0 0-0.024 0 0 0 0v0zM5.885 26.21v0c-0.024 0.024-0.024 0.024-0.024 0.071 0-0.024 0-0.024 0.024-0.071v0zM6.168 8.508c0-1.229 0.993-2.222 2.222-2.222v0 0 0c0.567 0 1.158 0.213 1.56 0.638 0.402 0.402 0.638 0.945 0.638 1.56 0 1.229-0.993 2.245-2.222 2.245h-0.024c-1.182 0-2.198-0.993-2.174-2.222zM23.563 13.731v0c0.638 1.063 3.167 5.129 3.805 6.121 0.142 0.236 0.638 0.78 0.567 1.016-0.095 0.331-2.222 0.78-2.765 0.874l1.229 3.025c0.685 0.449 1.371 0.874 2.032 1.371 0.614 0.402 1.678 0.945 1.56 1.843-0.071 0.945-1.253 1.536-2.080 0.993-0.922-0.614-1.843-1.229-2.765-1.843-0.236-0.165-0.52-0.307-0.756-0.52-0.402-0.331-0.52-0.851-0.709-1.323-0.213-0.473-0.402-0.993-0.567-1.465-0.024-0.071-0.544-1.465-0.567-1.418l-0.945 0.236 0.827 3.309c0.473 0.756 0.945 1.489 1.418 2.245 0.52 0.827 1.725 2.103 1.229 3.12-0.307 0.567-1.064 0.851-1.678 0.614-0.473-0.213-0.709-0.638-0.945-1.064-0.307-0.473-0.614-0.945-0.922-1.418-0.473-0.78-1.064-1.536-1.465-2.316-0.331-0.638-0.402-1.418-0.567-2.151-0.142-0.544-0.284-1.134-0.402-1.678-0.473 0.142-1.985 0.449-1.867-0.567 0.071-0.544 1.253-7.894 1.418-9.524l-0.142-0.544-0.095-0.142c-0.449-0.52-0.922-1.016-1.371-1.536-0.284-0.307-0.567-0.614-0.756-1.016-0.213-0.544-0.236-1.134-0.331-1.678s-0.165-1.087-0.284-1.631c-0.024-0.307 0.024-0.638 0.213-0.874 0.213-0.284 0.473-0.449 0.78-0.473 0.071 0 0.142 0 0.165 0v0c0.567 0 1.087 0.449 1.182 1.016l0.449 2.718 2.151 2.411h1.914l6.168-2.576c0.142-0.071 0.307-0.142 0.473-0.142 0.473 0 0.922 0.307 1.087 0.756 0.236 0.567-0.095 1.323-0.709 1.607l-5.979 2.623zM24.579 26.281v0c0 0 0-0.024 0 0 0-0.024 0 0 0 0zM24.579 26.257v0 0zM24.579 26.257v0 0zM22.027 10.73v0c1.253 0 2.245-0.993 2.245-2.222s-0.993-2.222-2.222-2.222v0 0c-0.567 0-1.158 0.213-1.56 0.638-0.402 0.402-0.638 0.993-0.638 1.56 0 1.229 0.993 2.245 2.174 2.245z"></path>
</symbol>
<symbol id="icon-welshdragon" viewBox="0 0 43 32">
<title>welshdragon</title>
<path class="path1" d="M34.623 0.010c-0.165-0.021-0.331 0.005-0.517 0.091-0.363 0.165-0.811 0.539-1.573 1.12-1.728 1.317-3.696 1.488-6.032 1.541-4.853 0.112-7.099 1.296-8.16 2.816s-0.928 3.344-1.056 4.704c-0.085 0.928-0.256 1.717-0.933 2.587 0.181-0.448 0.24-0.779 0.197-1.024-0.048-0.261-0.197-0.432-0.368-0.571s-0.363-0.256-0.512-0.411c-0.117-0.123-0.192-0.283-0.235-0.491 0.192-0.123 0.427-0.128 0.608-0.016 0.229 0.139 0.384 0.453 0.272 0.928-0.005 0.021 0.016 0.037 0.032 0.048 0.005 0.005-0.005 0.016 0.005 0.021 0.021 0.016 0.048 0.016 0.064 0l0.005-0.005c0 0 0 0 0-0.005 0.469-0.496 0.672-0.907 0.704-1.259s-0.101-0.64-0.288-0.891c-0.187-0.251-0.427-0.464-0.592-0.672-0.16-0.203-0.256-0.395-0.224-0.613 0.075-0.075 0.149-0.128 0.213-0.155 0.139-0.059 0.251-0.021 0.352 0.075s0.187 0.251 0.235 0.416c0.048 0.165 0.069 0.347 0.048 0.48 0 0.005 0.005 0.005 0.005 0.005-0.005 0.027 0.005 0.048 0.027 0.059s0.048 0.005 0.064-0.011c0-0.005 0.005-0.005 0.005-0.011 0 0 0-0.005 0.005-0.005 0.309-0.475 0.437-0.88 0.448-1.232 0.005-0.357-0.112-0.656-0.283-0.912-0.171-0.251-0.389-0.464-0.587-0.645-0.192-0.176-0.357-0.32-0.443-0.448 0-0.037 0-0.085 0-0.117 0.144-0.107 0.341-0.165 0.523-0.128 0.197 0.043 0.373 0.187 0.453 0.501 0 0.005 0.005 0 0.005 0.005 0.005 0.027 0.021 0.048 0.048 0.048s0.053-0.027 0.053-0.053v-0.005c0.021-0.645-0.096-1.168-0.336-1.557-0.219-0.357-0.549-0.597-0.944-0.731 0.016-0.027 0.032-0.048 0.053-0.075 0.133-0.176 0.32-0.384 0.496-0.619 0.352-0.475 0.693-1.072 0.619-1.813 0-0.005-0.005-0.011-0.011-0.016s0-0.016-0.005-0.021c-0.011-0.011-0.027-0.016-0.043-0.011-0.011 0-0.011 0.011-0.016 0.016-0.011 0.005-0.016 0.005-0.021 0.011-0.331 0.432-0.928 0.555-1.557 0.64 0.069-0.128 0.165-0.304 0.245-0.517 0.091-0.235 0.165-0.48 0.128-0.656v-0.005c0-0.005 0-0.011 0-0.016-0.005-0.016-0.011-0.027-0.021-0.032s-0.027-0.011-0.043-0.005c-0.005 0-0.005 0.005-0.011 0.011-0.011 0.005-0.016 0.005-0.021 0.011-0.384 0.416-1.104 0.667-1.739 0.843-0.315 0.085-0.608 0.155-0.832 0.224-0.112 0.032-0.203 0.069-0.272 0.107-0.043 0.021-0.080 0.053-0.107 0.085-0.437-0.096-0.853-0.16-1.227-0.181-0.672-0.032-1.216 0.048-1.584 0.197-0.187 0.075-0.331 0.171-0.421 0.277-0.091 0.112-0.128 0.24-0.101 0.373 0.027 0.123 0.128 0.245 0.267 0.363-0.955-0.395-1.776-0.555-2.448-0.555-0.277 0-0.533 0.021-0.757 0.064-0.459 0.080-0.816 0.224-1.077 0.373-0.208 0.117-0.331 0.224-0.416 0.315-0.011 0.011-0.021 0.011-0.032 0.021 0 0-0.005 0-0.005 0.005-0.005 0.005 0 0.011 0 0.011-0.005 0.005-0.016 0.016-0.021 0.021 0 0-0.005 0-0.005 0.005v0.005c-0.005 0.005-0.011 0.011-0.016 0.011-0.016 0.021-0.011 0.048 0.005 0.064s0.043 0.021 0.064 0.011c0.123-0.075 0.256-0.133 0.405-0.192 0.005 0 0.016 0.005 0.021 0.005 0.117 0 0.245 0.027 0.363 0.075 0.128 0.048 0.245 0.112 0.336 0.165s0.149 0.107 0.16 0.117c0 0 0.005 0.005 0.005 0.005 0.064 0.043 0.149 0.080 0.24 0.117-0.187 0.384-0.251 0.875-0.245 1.589-0.032 0.005-0.059 0.016-0.096 0.021-0.197 0.032-0.453 0.048-0.731 0.032-0.4-0.027-0.843-0.123-1.248-0.336 0.064 0.011 0.133 0.032 0.197 0.037 0.299 0.016 0.56-0.043 0.757-0.155 0.027-0.005 0.064-0.005 0.091-0.016 0.021-0.005 0.032-0.027 0.032-0.048 0-0.016-0.011-0.021-0.021-0.032-0.005-0.005-0.005-0.016-0.011-0.016-0.293-0.112-1.835-0.821-3.136-2.469 0 0 0 0-0.005-0.005s0 0-0.005-0.005c-0.011-0.016-0.032-0.021-0.048-0.021-0.027 0.005-0.043 0.032-0.043 0.059 0 0.005 0 0.016 0.005 0.021 0.059 0.784 0.304 2.704 1.899 4.245 0.016 0.016 0.043 0.021 0.064 0.011s0.032-0.032 0.027-0.059c-0.037-0.203-0.059-0.341-0.096-0.549 0-0.005-0.005-0.005-0.005-0.005 0.005-0.267-0.016-0.448-0.048-0.603 0.475 0.437 0.976 0.635 1.445 0.693 0.597 0.080 1.141-0.048 1.499-0.101 0.016-0.005 0.037-0.005 0.059-0.011 0.005 0.341-0.123 0.773-0.336 1.131-0.123 0.203-0.261 0.379-0.411 0.501s-0.304 0.187-0.453 0.176h-0.005c-0.027 0.005-0.043 0.027-0.043 0.048-0.011 0.011-0.027 0.011-0.021 0.027 0 0.027 0.021 0.053 0.053 0.053 0.651 0 1.189 0.016 1.781-0.021h0.005c0.075-0.011 0.107 0 0.107 0 0 0.005-0.005 0.011-0.011 0.021-0.037 0.064-0.165 0.192-0.309 0.331-0.016 0.016-0.021 0.037-0.011 0.059s0.032 0.037 0.053 0.032c0.005 0 0.005-0.005 0.011-0.005 0.011 0.011 0.032 0.016 0.048 0.011 0.005 0 0.011-0.005 0.016-0.005 0.021-0.005 0.037-0.011 0.059-0.021 0.384-0.043 0.859-0.117 1.216-0.379-0.005 0.037-0.021 0.091-0.032 0.123-0.016 0.032-0.037 0.069-0.085 0.112-0.005 0.005-0.021 0.016-0.027 0.021-0.064 0.048-0.107 0.091-0.187 0.144-0.005 0-0.005 0.005-0.011 0.005-0.016 0.011-0.027 0.037-0.021 0.059s0.021 0.037 0.043 0.037c0.005 0 0.011 0 0.016 0h0.005c0.005 0 0.005-0.005 0.011-0.005 0.4-0.043 1.104-0.352 1.611-0.885 0.261 0.037 0.432 0.165 0.544 0.293 0.064 0.069 0.107 0.133 0.16 0.181 0.021 0.016 0.043 0.027 0.069 0.037 0 0.021-0.021 0.048-0.016 0.069 0.011 0.048 0.043 0.085 0.085 0.112-0.187 0.347-0.245 0.592-0.219 0.747 0.016 0.091 0.059 0.149 0.101 0.192-0.251 0.187-0.464 0.384-0.565 0.56-0.053 0.096-0.080 0.192-0.059 0.277 0.005 0.027 0.027 0.043 0.037 0.064-0.021 0-0.037-0.005-0.059 0.005h-0.005c-0.251 0.123-0.491 0.363-0.624 0.597-0.064 0.117-0.101 0.235-0.091 0.341 0.005 0.048 0.027 0.085 0.048 0.123-0.315 0.16-0.613 0.523-0.773 0.843-0.080 0.165-0.133 0.32-0.117 0.443 0.005 0.064 0.032 0.117 0.080 0.155-0.011 0.011-0.016 0.021-0.032 0.032-0.005 0.005-0.011 0.005-0.016 0.011-0.32 0.165-0.528 0.544-0.619 0.885-0.048 0.171-0.064 0.331-0.037 0.453 0.011 0.043 0.037 0.075 0.064 0.107-0.016 0.011-0.037 0.021-0.053 0.032-0.096 0.085-0.165 0.181-0.187 0.213l-0.005 0.005c-0.187 0.235-0.267 0.624-0.256 0.949 0.005 0.16 0.037 0.309 0.096 0.416 0.021 0.037 0.053 0.059 0.085 0.085-0.005 0.005-0.016 0.011-0.021 0.016l-0.005 0.005c-0.187 0.235-0.267 0.624-0.256 0.949 0.005 0.165 0.037 0.309 0.096 0.416 0.032 0.053 0.069 0.096 0.117 0.123 0.027 0.011 0.059 0.005 0.085 0.005-0.005 0.011-0.027 0.032-0.032 0.043 0 0 0 0.005-0.005 0.005-0.032 0.032-0.048 0.064-0.064 0.117-0.011 0.027-0.011 0.059-0.021 0.085-0.112 0.229-0.208 0.107-0.272 0.016-0.491-1.024-0.976-1.627-1.445-3.968-0.101-0.395-1.013-1.035-1.264-2.688-0.048-0.373 0.512-1.179-0.261-1.424 0 0-0.005 0-0.005 0-0.528-1.003-1.616-0.624-1.792-0.293-0.016 0.016-0.016 0.043-0.005 0.064s0.032 0.027 0.059 0.021c0.139-0.037 0.56 0.107 0.56 0.363-0.235 0.549 0.059 1.008-0.096 0.96-0.027-0.859-0.96-0.848-0.992-0.837 0 0 0 0.005 0 0.005l-0.421-0.048c-1.397 0.011-1.003 1.029-0.917 1.232 0.016 0.016 0.043 0.027 0.075 0.021s0.053-0.016 0.059-0.037c-0.064-0.384 0.245-0.4 0.565-0.251 0.203 0.773 0.629 0.805 0.688 0.805v0.005h0.005c0.581 0.117 0.763 0.501 0.768 0.736-0.187-0.069-0.411-0.107-0.725-0.048-0.208-0.213-0.613-0.293-0.752-0.32-0.064-0.011-0.501 0.043-0.677 0.293l-0.064-0.011c-0.869 0.277-0.512 1.253-0.213 1.371 0.011 0.016 0.032 0.021 0.048 0.016s0.027-0.021 0.027-0.043c-0.128-0.299 0.053-0.464 0.277-0.368 0.331 0.363 0.741 0.512 1.573 0.043 0.011 0.005 0.293 0.133 0.592 0.24-0.011 0.352 0.357 0.96 0.629 1.419-0.085 0.357-0.224 0.709-0.304 0.843 0 0-0.005 0.005-0.005 0.005-0.336 0.261-0.624 0.875-0.491 1.429-0.107 0.272-0.485 0.416-0.491-0.107-0.016-0.016-0.043-0.016-0.059-0.005s-0.027 0.032-0.021 0.059c-0.123 0.347 0.453 1.403 1.355 0.853l0.181-0.208c0.299 0.005 0.608-0.384 0.72-0.72 0.448 2.731 1.499 5.488 1.936 6.384-0.325 1.003-1.275 0.965-1.584 0.64-0.005 0-0.005-0.005-0.011-0.005-0.021-0.021-0.053-0.011-0.075 0.011-0.016 0.021-0.016 0.053 0.005 0.075 0.581 0.581 0.896 0.768 1.467 0.768 1.253-0.005 1.691-0.784 1.792-1.115 1.056-0.224 1.867-0.917 2.171-0.971 0.048 0.043 0.112 0.117 0.155 0.155 0.251 0.197 0.459 0.309 0.645 0.331 0.091 0.011 0.171-0.005 0.245-0.043 0.069 0.149 0.176 0.267 0.315 0.363-0.053 0.373-0.096 1.131-0.368 2.096-0.277 0.997-0.795 2.187-1.803 3.312-0.395 0.171-0.715-0.096-0.923-0.261-0.171-0.139-0.624-0.619-0.699-0.869-0.091-0.293-0.203-0.501-0.357-0.651s-0.416-0.203-0.613-0.224c0 0 0.075 0.016-0.005 0-0.075 0.005-0.123 0-0.171 0.005-0.613-0.485-1.216 0.331-1.141 0.837 0 0.021 0.016 0.043 0.037 0.048s0.048 0 0.064-0.021c0.080-0.192 0.325-0.139 0.448 0.032-0.021 0.181-0.005 0.384 0.192 0.624-0.192 0.016-0.437 0.069-0.699 0.368-1.045 0.128-0.853 1.312-0.544 1.515 0.011 0.021 0.032 0.032 0.053 0.032 0.021-0.005 0.037-0.021 0.043-0.043-0.341-0.443 0.144-0.635 0.384-0.432 0.059 0.192 0.336 0.373 0.571 0.491-0.011 0.059-0.091 0.293-0.064 0.357-1.125 0.619-0.080 1.696 0.176 1.621 0.021-0.005 0.043-0.005 0.059-0.021 0.016-0.011 0.027-0.037 0.021-0.059-0.16-0.256-0.165-0.565 0.112-0.475 0.144 0.096 0.421 0.133 0.565 0.133 0.357 0.005 0.555-0.224 1.003-0.661 0.267-0.261 0.469-0.133 0.635-0.048 0.016 0.075 0.048 0.165 0.133 0.197 0.133 0.053 0.416 0.080 0.581 0.075 0.917-0.027 1.429-0.229 1.851-0.373s0.8-0.224 1.152-0.229c0.331-0.005 0.544 0.059 0.901 0.181 0.181 0.059 0.464 0.203 0.608 0.203 0.229-0.011 0.336-0.117 0.395-0.208 0.341-0.064 0.432 0.091 0.229 0.48-0.005 0.021 0.005 0.048 0.021 0.059 0.021 0.011 0.043 0.011 0.059-0.005 0.357-0.149 1.419-1.168-0.016-1.749-0.219-0.192-0.501-0.357-0.725-0.357s-0.443 0.091-0.672 0.139c-0.229 0.048-0.453 0.096-0.528 0.096-0.293 0.005-0.309-0.176-0.336-0.501s0.656-1.467 0.96-1.867c0.603-0.795 1.408-1.707 1.984-2.299 1.723-0.075 1.029 0.944 0.736 1.141-0.021 0.016-0.032 0.043-0.021 0.069s0.037 0.037 0.064 0.032c0.005 0 0.011-0.005 0.016-0.005 0.624-0.165 1.216-0.592 1.413-0.992 0 0 0.448-0.784 0.064-1.445-0.016-0.037-0.037-0.091-0.059-0.133 0.213-0.101 0.48-0.464 0.491-0.517 0.288 0.080 1.392 0.021 1.493-0.603 0.512 0.048 1.424-0.288 1.461-0.843 0.059 0.059 0.192 0.059 0.336 0.032 0.059 0.469 0.763 0.912 0.928 0.811 0.069 0.773 1.045 1.141 1.333 1.008-0.048 0.187 0.672 0.539 0.96 0.523-0.555 1.499-1.536 3.195-2.901 3.867-0.363-0.037-0.885-0.283-1.115-0.437-0.181-0.123-0.416-0.277-0.56-0.512s-0.133-0.229-0.288-0.379c-0.155-0.155-0.459-0.272-0.56-0.261-0.069 0.005-0.192 0.059-0.299 0.133-1.344-0.24-1.216 0.72-1.099 1.067 0 0.021 0.016 0.037 0.037 0.048s0.048-0.005 0.064-0.021c0.005-0.501 0.288-0.501 0.437-0.267 0 0.011-0.005 0.016-0.005 0.021 0.080 0.176 0.048 0.267 0.016 0.336-0.149 0.016-0.299 0.053-0.475 0.181-1.179-0.128-1.072 1.173-0.699 1.328 0.011 0.021 0.032 0.032 0.053 0.032 0.021-0.005 0.037-0.021 0.043-0.043-0.213-0.309 0.32-0.784 0.448-0.219v0.005c-0.016 0.016-0.016 0.043-0.005 0.059 0.027 0.181 0.24 0.363 0.432 0.453-0.032 0.059-0.107 0.107-0.123 0.203-1.243 0.437-0.549 1.504-0.181 1.659 0.016 0.011 0.043 0.011 0.064 0s0.027-0.037 0.021-0.059c-0.112-0.16-0.069-0.528 0.448-0.459 0.043 0.149 0.272 0.219 0.448 0.219 0.357 0.005 1.003-0.48 1.349-0.667 0.325-0.176 0.848-0.112 0.987-0.101 0.069 0.059 0.176 0.117 0.411 0.112 1.248-0.016 1.467-0.693 2.725-0.672 0.565 0.011 1.904 0.677 2.331 0.059 0.192-0.069 0.299 0.101 0.064 0.331-0.016 0.016 0.005 0.048 0.021 0.059 0.021 0.011 0.037-0.005 0.059-0.005 0.373 0.048 1.488-1.168 0.011-1.568-0.005-0.011-0.005-0.021-0.021-0.037-0.037-0.027-0.224-0.224-0.661-0.224-0.453 0-0.773 0.208-0.928 0.251-0.331 0.096-0.213-0.176-0.176-0.261 0.368-0.901 2.149-2.581 2.955-3.259 0.080-0.032 0.176-0.080 0.293-0.155 0.811-0.293 1.029 0.496 0.229 0.789-0.032 0.037-0.037 0.085-0.011 0.128s0.069 0.059 0.117 0.048c1.877-0.496 1.595-1.525 1.595-1.536 0.069-1.067-1.195-1.509-1.403-1.611-0.347-0.384-0.427-0.608-0.4-0.885 0.011-0.133 0.117-0.357 0.299-0.261 0.304 0.24 0.667 0.379 0.768 0.187-0.213 0.245 1.28 1.141 1.424 0.773 0.144 0.64 1.221 0.597 1.424 0.427 0.315 0.603 1.408 0.443 1.408 0.341-0.043 0.224 0.955 0.555 1.413 0.208l0.021 0.048c0.363 0.443 0.581 1.035 0.832 2.075s0.203 1.861-0.128 2.693c-0.016 0.032-0.107 0.032-0.208 0.032-0.267-0.107-0.421-0.187-0.603-0.331-0.171-0.139-0.379-0.336-0.528-0.549-0.139-0.251-0.24-0.448-0.395-0.603-0.155-0.149-0.421-0.219-0.619-0.24h-0.005c-0.091 0.005-0.165 0.037-0.229 0.085-1.003-0.309-1.488 0.752-1.365 1.099 0 0.021 0.021 0.043 0.043 0.048s0.048-0.005 0.064-0.021c0.101-0.261 0.565-0.389 0.731-0.144 0.027 0.107 0.016 0.181-0.005 0.235-0.208 0.021-0.459 0.085-0.693 0.384-1.173 0.075-0.773 1.227-0.533 1.525 0.011 0.021 0.032 0.032 0.053 0.032 0.021-0.005 0.043-0.021 0.048-0.043-0.032-0.336 0.309-0.731 0.549-0.427 0.107 0.165 0.341 0.288 0.507 0.325-1.344 0.619-0.379 1.509-0.016 1.664 0.016 0.011 0.043 0.011 0.059 0s0.027-0.037 0.021-0.059c-0.165-0.261-0.075-0.656 0.24-0.555-0.005 0.219 0.437 0.363 0.645 0.368 0.357 0.005 0.736-0.288 1.077-0.475 0.325-0.176 1.093-0.187 1.243-0.187 0.512 0.491 1.499 0.363 2.048 0.192 0.587-0.187 1.029-0.512 1.493-0.523 0.624 0.005 1.109 0.757 1.653 0.117 0.357-0.171 0.464 0.267 0.293 0.544-0.005 0.021 0 0.043 0.021 0.053 0.016 0.011 0.043 0.016 0.064 0 0.363-0.155 1.301-1.019 0.016-1.637 0.064-0.165-0.496-0.651-0.971-0.656-0.576 0-1.451 0.88-1.792-0.869-0.085-0.421-0.32-3.472-0.336-3.765 0.112-0.075 0.261-0.16 0.373-0.155 0.128-0.005 0.261-0.016 0.384 0.187s0.224 0.507-0.096 0.923c-0.005 0.005 0.005 0.011 0.005 0.021-0.005 0.011-0.011 0.016-0.011 0.027 0 0.005 0.011 0.005 0.011 0.011s0 0.011 0.005 0.016c0.005 0.005 0.011 0 0.016 0s0.005 0.011 0.011 0.011c0.021 0.005 0.037 0 0.053-0.016 0.795-0.795 0.992-1.637 0.779-2.219s-0.795-1.008-1.269-1.019c-0.571-0.016-1.2-0.347-1.739-0.848s-0.875-1.072-1.088-1.6c-0.037-0.096-0.091-0.192-0.133-0.288 3.477-1.2 4.475-3.973 4.475-5.675 0-1.179-0.485-2.181-1.173-2.917-0.011-0.283 0.064-0.645 0.176-0.96 0.064-0.181 0.133-0.341 0.197-0.453 0.027-0.048 0.048-0.085 0.064-0.112 0.016 0.069 0.032 0.133 0.075 0.235 0.059 0.144 0.139 0.32 0.224 0.491 0.176 0.347 0.389 0.704 0.565 0.853 0.016 0.011 0.037 0.016 0.053 0.005s0.032-0.027 0.032-0.043c0.139-1.712 0.731-4.224 2.64-6.539 0 0 0 0 0.005-0.005 0 0 0 0 0-0.005 0.005-0.005 0.011-0.005 0.021-0.011 0.021-0.011 0.032-0.037 0.027-0.064-0.011-0.027-0.032-0.043-0.059-0.037-0.005 0-0.005 0-0.011 0.005 0 0-0.005 0-0.005 0-0.437 0.203-0.827 0.405-1.184 0.603-3.104 1.653-3.659 2.773-5.381 4.101-0.021 0.016-0.027 0.043-0.021 0.064 0.011 0.021 0.032 0.037 0.059 0.032 0.848-0.043 1.579-0.229 2.245-0.571-0.171 0.277-0.363 0.613-0.555 0.912-0.112 0.176-0.219 0.331-0.309 0.432-0.043 0.048-0.080 0.091-0.112 0.107-0.016 0.011-0.016 0.005-0.021 0.005-0.459-0.219-0.939-0.336-1.397-0.341-1.712-0.005-2.896 1.136-2.907 2.512-0.011 1.472 1.136 2.571 2.272 2.512 0.395-0.021 0.917-0.123 1.381-0.427 0.341-0.224 0.635-0.571 0.811-1.051 0.005 0.037 0.011 0.075 0.011 0.117 0 0.789-0.304 1.328-0.795 1.696s-1.195 0.555-1.973 0.571c-0.763 0.016-1.552-0.4-2.656-0.848-1.109-0.448-2.539-0.912-4.587-0.949-0.613-0.011-1.195 0.048-1.68 0.304-0.032 0.016-0.059 0.043-0.091 0.059 0.261-0.315 0.576-0.592 0.949-0.8 0.891-0.485 2.021-0.613 3.035-0.203 0.107 0.053 0.235 0.117 0.331 0.155 0.080 0.032 0.123 0.032 0.187 0.053 0.016 0.123 0.016 0.219-0.005 0.267-0.011 0.027-0.027 0.032-0.043 0.043-0.011 0.005-0.021 0.005-0.037 0.011-0.021 0.005-0.043 0.011-0.080 0.005-0.016-0.005-0.037 0-0.048 0.016s-0.016 0.037-0.011 0.053c-0.005 0.021 0.011 0.048 0.032 0.059 0.016 0.005 0.027 0.005 0.037 0.011 0.080 0.080 0.171 0.117 0.256 0.101 0.107-0.027 0.192-0.107 0.261-0.208 0.069-0.096 0.123-0.213 0.149-0.32 0-0.011 0-0.021 0.005-0.032 0.085-0.096 0.149-0.235 0.117-0.395-0.032-0.171-0.171-0.347-0.432-0.491-0.005-0.005-0.005-0.011-0.011-0.016-0.011-0.005-0.064-0.064-0.107-0.155s-0.091-0.224-0.123-0.373c-0.064-0.299-0.085-0.683 0-1.061 0.171-0.757 0.731-1.515 2.261-1.669 0.005 0 0.011-0.011 0.016-0.011 0.293 0.059 0.56 0.101 0.763 0.096 0.032 0 0.059-0.005 0.085-0.011 0.016 0.016 0.027 0.027 0.037 0.048 0.021 0.037 0.037 0.085 0.032 0.139-0.005 0.043-0.043 0.101-0.085 0.155-0.005 0-0.005 0-0.005 0.005-0.016 0.005-0.032 0.016-0.037 0.032s-0.005 0.037 0.005 0.048v0.011h0.005v0.005c0.005 0.021 0.021 0.032 0.037 0.037 0.021 0.005 0.043-0.005 0.064-0.005 0.091 0.027 0.187 0.027 0.267-0.032 0.107-0.075 0.197-0.197 0.245-0.336 0.053-0.139 0.075-0.288 0.027-0.421-0.032-0.085-0.107-0.149-0.203-0.192-1.211-1.264-1.163-2.795-0.683-4.085 0.24-0.645 0.587-1.232 0.933-1.669s0.731-0.752 0.917-0.816c0.011-0.005-0.005 0.011 0.005 0.005 0.075 0.005 0.155 0.011 0.224-0.011 0.107-0.032 0.203-0.085 0.288-0.149 0.005 0.005 0 0.016 0.005 0.016 0.027 0.011 0.053-0.005 0.064-0.032l0.005-0.005c0.011-0.005 0.027-0.011 0.048-0.021 0.037-0.011 0.091-0.021 0.123-0.016 0.016 0 0.032 0.011 0.037 0.011s0.011 0.005 0.011 0.021c0.005 0.027-0.005 0.096-0.069 0.197 0 0 0 0-0.005 0.005v0.011c-0.005 0.011-0.011 0.027-0.005 0.043 0 0 0 0 0.005 0.005v0.005c0 0 0 0 0.005 0 0 0 0 0.005 0.005 0.005 0 0 0 0 0.005 0.005s0 0 0.005 0.005c0.005 0.005 0.011 0.005 0.011 0.005s0.005 0 0.005 0.005c0 0 0.005 0 0.005 0s0.005 0 0.005 0c0 0 0.005 0 0.005 0 0.005 0 0.011 0 0.016-0.005 0.005 0 0.005-0.005 0.011-0.005 0 0 0 0 0.005-0.005 0.096-0.016 0.192-0.075 0.272-0.165 0.091-0.096 0.171-0.224 0.203-0.352 0.037-0.128 0.032-0.272-0.064-0.368-0.080-0.080-0.219-0.117-0.405-0.112-0.032-0.075-0.091-0.139-0.176-0.176-0.075-0.032-0.176-0.037-0.288-0.037l-0.075-0.021c-0.187-0.128-0.352-0.203-0.517-0.224v0zM8.058 5.476c0.357 0 0.715 0.064 1.045 0.213-0.069 0.059-0.16 0.101-0.267 0.128-0.208 0.048-0.464 0.032-0.715-0.011-0.245-0.048-0.48-0.133-0.64-0.213-0.048-0.027-0.069-0.048-0.101-0.069 0.224-0.032 0.448-0.048 0.677-0.048v0zM35.893 10.81c0.128 0.005 0.272 0.032 0.421 0.085 0.107 0.037 0.213 0.107 0.32 0.171-0.016 0.016-0.027 0.043-0.032 0.064-0.192 0.677-0.544 0.875-0.827 0.869-0.288-0.005-0.528-0.219-0.528-0.507 0-0.357 0.123-0.523 0.309-0.613 0.085-0.043 0.203-0.069 0.336-0.069v0zM15.925 12.612c0.075-0.011 0.139 0 0.192 0.043s0.096 0.117 0.112 0.24c0 0.005 0.011 0.005 0.016 0.016 0 0.016 0.005 0.037 0.021 0.048 0.005 0.005 0.011-0.005 0.016-0.005-0.096 0.117-0.181 0.229-0.299 0.347-0.176-0.069-0.331-0.181-0.453-0.379 0.107-0.16 0.261-0.283 0.395-0.309v0z"></path>
<path class="path2" d="M34.645 0.191c-0.651 0.645-1.291 1.104-2.203 1.664-1.6 0.976-3.467 1.227-5.797 1.349-4.72 0.251-6.816 1.168-7.781 2.496-0.971 1.328-0.805 3.029-1.056 4.811-0.080 0.56-0.245 1.227-0.549 1.792-0.256 0.48-0.608 0.875-1.083 1.088 1.312-1.189 1.317-2.347 1.429-3.029 0.197-1.221-0.021-2.955 0.923-4.432 0.949-1.477 3.067-2.72 7.995-2.907 2.032-0.080 3.269-0.272 4.133-0.528 0.859-0.256 1.339-0.571 1.835-0.875 0.512-0.315 0.933-0.789 1.344-1.104 0.203-0.16 0.405-0.277 0.613-0.32 0.064-0.016 0.133-0.005 0.197-0.005zM35.221 0.458c0.091-0.005 0.165 0 0.203 0.021 0.048 0.021 0.064 0.043 0.075 0.075 0.021 0.064-0.011 0.197-0.096 0.32-0.091 0.123-0.229 0.235-0.379 0.277s-0.405-0.075-0.448-0.107c-0.016-0.021-0.043-0.016-0.069-0.016-0.027-0.027-0.048-0.059-0.075-0.085-0.011-0.016-0.027-0.021-0.048-0.021-0.011 0-0.021 0.005-0.032 0.011-2.331 2.128-4.315 2.533-7.589 2.763-1.115 0.075-2.864 0.288-4.373 0.667-0.752 0.187-1.451 0.416-1.979 0.693s-0.896 0.603-0.976 0.997c-0.005 0.016 0 0.032 0.016 0.048 0.011 0.011 0.027 0.021 0.048 0.016 0.005 0 0.016 0 0.021-0.005 0.021 0.032 0.053 0.053 0.096 0.048 0.277-0.027 1.077-0.027 2.16 0.011 1.083 0.043 2.448 0.123 3.893 0.261 2.779 0.267 5.824 0.747 7.627 1.52 0.037 0.043 0.069 0.085 0.107 0.128 0 0 0 0 0 0.005-0.048 0.027-0.16 0.043-0.325 0.027-0.325-0.027-0.843-0.149-1.461-0.309-1.248-0.32-2.933-0.789-4.48-0.955-2.635-0.277-4.213-0.635-7.819-0.645-0.005 0-0.011 0-0.011 0-0.005 0-0.005 0-0.011 0.005-0.016 0.011-0.021 0.016-0.032 0.027s-0.027 0.027-0.048 0.043c-0.032 0.037-0.075 0.085-0.112 0.144-0.075 0.128-0.139 0.304-0.107 0.523 0 0.016 0.011 0.037 0.027 0.043 0.005 0.005 0.021 0.005 0.027 0.005 0.011 0.011 0.011 0.032 0.032 0.037 0.309 0.053 1.013 0.272 1.92 0.597s2.021 0.752 3.179 1.232c2.256 0.933 4.656 2.048 6.016 2.923 0.096 0.075 0.229 0.176 0.299 0.267 0.016 0.027 0.032 0.048 0.037 0.064s0.005 0.027 0 0.037c-0.005 0.011-0.059 0.037-0.128 0.053-0.539-0.117-1.381-0.576-2.357-1.141-1.067-0.619-2.288-1.344-3.429-1.813-2.011-0.827-4.437-1.904-5.584-2.155-0.005 0-0.011 0-0.016-0.005-0.016 0-0.021 0.021-0.032 0.032-0.005 0-0.016 0-0.021 0s-0.011 0.005-0.016 0.011c-0.080 0.053-0.139 0.112-0.165 0.187-0.027 0.069-0.016 0.149 0.016 0.224 0.069 0.155 0.235 0.331 0.48 0.581 0.491 0.501 1.323 1.285 2.373 2.651 1.824 2.357 2.677 3.499 3.045 4.069 0.187 0.283 0.24 0.427 0.245 0.48 0 0.027 0 0.032-0.011 0.043-0.011 0.005-0.032 0.021-0.048 0.032-0.144-0.005-0.235-0.032-0.32-0.112-0.091-0.085-0.181-0.229-0.32-0.475-0.277-0.48-0.747-1.323-1.84-2.757-0.661-0.869-1.467-1.803-2.149-2.576-0.672-0.768-1.216-1.376-1.381-1.6-0.005-0.011-0.011-0.027-0.011-0.037-0.005-0.011-0.016-0.021-0.027-0.032-0.032-0.011-0.069-0.005-0.096 0.011s-0.043 0.043-0.059 0.069c-0.032 0.059-0.059 0.133-0.080 0.235-0.053 0.197-0.096 0.464-0.133 0.747s-0.064 0.576-0.080 0.816c-0.016 0.235-0.027 0.4-0.021 0.491v0.027c0 0.011 0.005 0.016 0.011 0.021 0.048 0.411 0.224 0.752 0.459 1.232 0.24 0.496 0.528 1.141 0.795 2.16 0.224 0.864 0.443 1.755 0.549 2.437 0.053 0.341 0.075 0.629 0.059 0.832-0.005 0.101-0.027 0.181-0.053 0.229s-0.053 0.069-0.096 0.075h-0.005c-0.064 0.016-0.085 0.011-0.107-0.016s-0.048-0.085-0.064-0.181c-0.032-0.197-0.043-0.533-0.101-1.035-0.107-0.992-0.384-2.624-1.339-5.093 0-0.005-0.005-0.011-0.005-0.021 0-0.005-0.011 0-0.011-0.005-0.005-0.011-0.005-0.021-0.016-0.021-0.005-0.005-0.011 0.005-0.016 0.005s-0.005-0.005-0.011-0.005c-0.005 0-0.005 0.005-0.011 0.011s-0.016 0-0.021 0.005c-0.011 0.011-0.021 0.021-0.032 0.032-0.016 0.021-0.037 0.048-0.053 0.085-0.037 0.075-0.080 0.181-0.128 0.32-0.096 0.272-0.219 0.667-0.331 1.12-0.149 0.608-0.288 1.328-0.363 2.059-0.005-0.107-0.011-0.181-0.011-0.288-0.011-0.261-0.011-0.517 0.011-0.731 0.011-0.107 0.027-0.197 0.048-0.277 0.011-0.037 0.021-0.059 0.032-0.085 0.016-0.043 0.032-0.091 0.053-0.117 0 0 0-0.005 0-0.005 0-0.005 0-0.005 0.005-0.005 0.011-0.016 0.011-0.037 0-0.059 0 0-0.005 0-0.011-0.005-0.011-0.011-0.027-0.021-0.043-0.021-0.011 0-0.021 0.005-0.032 0.011-0.416 0.4-0.693 0.693-0.901 1.141-0.101 0.219-0.187 0.48-0.261 0.8 0.011-0.213 0.021-0.416 0.032-0.576s0.032-0.283 0.053-0.331c0.011-0.021 0.005-0.043-0.011-0.059s-0.037-0.021-0.053-0.011c-0.011 0-0.011 0.011-0.016 0.016-0.005 0-0.011-0.005-0.011-0.005s-0.005 0-0.011 0.005c-0.267 0.123-0.651 0.395-0.976 0.736-0.155 0.16-0.288 0.336-0.395 0.523 0.080-0.341 0.16-0.475 0.229-0.613 0.021-0.032 0.043-0.048 0.064-0.091 0.011-0.016 0.011-0.037 0-0.053-0.005-0.011-0.016-0.011-0.027-0.016 0 0 0 0-0.005 0s-0.011-0.011-0.016-0.011c-0.005 0-0.011 0.005-0.016 0.005-0.011 0-0.016-0.011-0.021-0.005-0.005 0-0.005 0.011-0.016 0.011-1.461 0.133-2.347 0.677-2.864 1.301-0.341 0.411-0.517 0.848-0.603 1.216 0.064-0.939 0.624-1.819 1.435-2.144 0.459-0.181 1.088-0.267 1.648-0.368 0.544-0.096 1.024-0.213 1.264-0.48 0.661-0.229 1.147-0.853 1.483-1.515 0.341-0.672 0.528-1.376 0.597-1.744 0.288-1.595 0.005-3.28 0.885-4.597 0.443-0.661 1.173-1.232 2.427-1.669s3.029-0.725 5.541-0.811c2.032-0.069 3.264-0.331 4.112-0.645s1.317-0.688 1.813-0.981c0.277-0.165 0.757-0.576 1.269-0.923 0.256-0.171 0.512-0.325 0.752-0.427 0.096-0.037 0.192-0.064 0.288-0.085v0zM15.599 0.714c-0.080 0.192-0.181 0.384-0.299 0.544-0.091 0.123-0.176 0.229-0.24 0.299-0.032 0.037-0.059 0.064-0.075 0.080-0.005 0.005-0.005 0.005-0.005 0.011 0 0 0 0-0.005 0.005 0 0-0.005 0-0.005 0.005 0 0 0 0-0.005 0-0.005 0.005-0.011 0.011-0.011 0.016-0.363 0.048-0.709 0.096-1.003 0.219-0.037 0.016-0.064 0.048-0.101 0.064-0.213-0.075-0.411-0.117-0.613-0.171 0 0 0.005 0 0.005-0.005 0.005-0.027 0.032-0.053 0.091-0.085s0.144-0.064 0.245-0.091c0.203-0.059 0.48-0.123 0.768-0.203 0.453-0.133 0.944-0.331 1.253-0.688v0zM35.818 0.724c0.053 0.005 0.091 0.021 0.117 0.043 0.053 0.037 0.069 0.091 0.059 0.165-0.011 0.064-0.048 0.139-0.101 0.208 0.005-0.053 0.021-0.107 0.005-0.144-0.043-0.091-0.139-0.128-0.24-0.149 0.016-0.043 0.037-0.080 0.048-0.117 0.037-0.005 0.080-0.011 0.112-0.005v0zM16.922 1.188c-0.181 0.949-0.693 1.541-1.189 1.92-0.267 0.203-0.528 0.347-0.725 0.459-0.096 0.053-0.181 0.101-0.24 0.144-0.032 0.021-0.053 0.043-0.075 0.064s-0.037 0.048-0.037 0.085c0 0.032 0.021 0.053 0.053 0.053 0.085 0 0.299-0.005 0.507-0.005 0.080 0 0.112 0 0.176-0.005 0.24 0.512 0.336 1.227 0.32 2.053-0.021 0.885-0.16 1.877-0.357 2.832-0.197 0.96-0.432 2.027-0.427 2.944 0 0.459 0.064 0.885 0.224 1.243 0.128 0.288 0.325 0.533 0.603 0.715-0.048 0.080-0.139 0.149-0.277 0.203-0.165 0.064-0.384 0.112-0.619 0.149-0.475 0.080-1.035 0.123-1.44 0.245-0.272 0.080-0.875 0.389-1.339 0.944-0.384 0.464-0.645 1.109-0.533 1.915-0.005 0.016-0.011 0.032-0.005 0.048 0.011 0.021 0.021 0.048 0.032 0.069 0.021 0.123 0.027 0.24 0.069 0.368v0.005c0.005 0.027 0.037 0.043 0.064 0.037s0.043-0.037 0.037-0.064c0 0 0-0.005 0-0.005 0-0.005 0-0.016-0.005-0.021-0.011-0.043-0.011-0.080-0.016-0.123 0.096 0.048 0.224 0.075 0.379 0.080-0.192 0.443-0.331 0.944-0.421 1.483-0.096-0.149-0.24-0.288-0.437-0.416 0.016-0.059 0.027-0.117 0.027-0.181-0.005-0.304-0.203-0.661-0.656-1.083 0.032-0.053 0.064-0.101 0.085-0.165 0.091-0.272 0.027-0.619-0.24-1.083 0.171-0.277 0.171-0.688-0.075-1.317 0-0.005-0.005-0.005-0.011-0.005 0.021-0.021 0.048-0.037 0.069-0.064 0.203-0.245 0.256-0.629 0.085-1.211 0 0-0.005 0-0.005-0.005 0.043-0.032 0.085-0.064 0.117-0.107 0.192-0.229 0.272-0.592 0.187-1.157 0.075-0.037 0.139-0.080 0.197-0.144 0.181-0.197 0.256-0.544 0.213-1.088 0.133-0.043 0.251-0.107 0.341-0.208 0.176-0.187 0.256-0.485 0.197-0.933 0.091-0.043 0.176-0.091 0.245-0.171 0.16-0.187 0.245-0.48 0.213-0.917 0.064-0.027 0.123-0.048 0.16-0.096 0.107-0.112 0.133-0.283 0.128-0.528-0.005-0.208-0.027-0.512-0.048-0.859 0.080-0.123 0.139-0.256 0.16-0.432 0.037-0.267 0-0.603-0.107-1.024 0.133-0.325 0.213-0.699 0.187-1.152 0.096 0.032 0.208 0.053 0.341 0.032 0.16-0.032 0.352-0.123 0.587-0.288 0.005-0.005 0.011-0.005 0.016-0.011s0.005-0.005 0.011-0.005c0.021-0.016 0.027-0.048 0.016-0.069-0.016-0.021-0.043-0.032-0.069-0.021-0.005 0-0.005 0.005-0.005 0.005-0.059 0.032-0.112 0.069-0.155 0.091-0.048 0.027-0.075 0.032-0.101 0.021-0.235-0.085-0.288 0.016-0.949-0.533-0.011-0.011-0.021-0.016-0.037-0.011-0.016 0-0.032 0.011-0.043 0.021-0.011 0.016-0.011 0.032-0.005 0.048 0.005 0.005 0.011 0.016 0.011 0.021 0 0 0 0 0.005 0.005 0.064 0.133 0.181 0.261 0.304 0.368 0.048 0.043 0.080 0.053 0.123 0.085-0.149-0.037-0.272-0.085-0.373-0.133-0.021-0.011-0.043-0.005-0.059 0.011s-0.016 0.037-0.011 0.059c0.288 0.667 0.080 1.477-0.421 2.005-0.491 0.523-1.253 0.779-2.096 0.373-0.011-0.021-0.032-0.032-0.059-0.032-0.011 0.005-0.021 0.011-0.032 0.021 0 0-0.005 0-0.005 0.005-0.112 0.197-0.213 0.373-0.421 0.565-0.128 0.117-0.32 0.251-0.56 0.384 0.101-0.101 0.176-0.192 0.224-0.288 0.101-0.192 0.096-0.384 0.085-0.619 0-0.027-0.016-0.043-0.037-0.048s-0.048 0.005-0.059 0.027c-0.149 0.277-0.613 0.688-1.376 0.965 0.315-0.267 0.523-0.549 0.539-0.827 0-0.021-0.011-0.043-0.032-0.053s-0.043-0.005-0.059 0.011c-0.416 0.368-1.147 0.485-1.856 0.533 0.155-0.075 0.309-0.181 0.448-0.331 0.272-0.293 0.491-0.741 0.624-1.333 0.496 0.288 0.944 0.384 1.328 0.357 0.437-0.027 0.784-0.197 1.029-0.341-0.005 0.107-0.011 0.197-0.016 0.336 0 0.027 0.016 0.048 0.043 0.053s0.048-0.011 0.059-0.032c0.235-0.555 0.347-0.901 0.315-1.195s-0.213-0.507-0.539-0.795c-0.011-0.011-0.027-0.016-0.043-0.011-0.021 0.005-0.037 0.021-0.043 0.048-0.005 0.069-0.011 0.139-0.021 0.208-0.645-0.037-1.344-0.656-2.752 0.411-0.032-0.619 0.005-1.019 0.165-1.355 0.064 0.011 0.133 0.011 0.197-0.005 0.133-0.021 0.256-0.096 0.352-0.245 0.085-0.133 0.133-0.325 0.155-0.587 0.843 0.037 1.808 0.197 2.848 0.496 0.005 0 0.005 0 0.011 0.005 0.027 0.005 0.048-0.011 0.059-0.032 0-0.005-0.005-0.011-0.005-0.016 0 0 0.005 0 0.005-0.005 0.011-0.027-0.005-0.053-0.027-0.064 0 0-0.005 0-0.005-0.005-0.005 0-0.005 0-0.005-0.005-0.171-0.069-0.304-0.144-0.421-0.219-0.075-0.064-0.139-0.133-0.16-0.208-0.053-0.165 0.021-0.347 0.261-0.491 0.469-0.288 1.589-0.395 3.397 0.213-0.069 0.091-0.128 0.187-0.171 0.304-0.005 0.021 0 0.048 0.021 0.064 0.021 0.011 0.048 0.011 0.064-0.005 0.517-0.512 1.237-0.587 1.936-0.693 0.656-0.080 1.259-0.224 1.659-0.731v0zM16.405 2.010c-0.011 0-0.021 0.005-0.032 0.011-0.448 0.357-0.848 0.469-1.285 0.549-0.368 0.053-0.533 0.192-0.629 0.256-0.027 0.016-0.043 0.027-0.059 0.032s-0.021 0.005-0.037 0c-0.027-0.011-0.080-0.048-0.165-0.144-0.016-0.016-0.037-0.021-0.059-0.011s-0.032 0.032-0.032 0.053c0 0.005 0.005 0.021 0.011 0.027 0 0 0 0 0.005 0.005 0.021 0.091 0.075 0.203 0.144 0.325 0.037 0.064 0.080 0.133 0.117 0.181 0.037 0.053 0.064 0.091 0.107 0.117 0.011 0.005 0.027 0.011 0.043 0.005s0.027-0.016 0.032-0.032c0.144-0.304 0.267-0.48 0.368-0.576s0.176-0.112 0.24-0.101c0.064 0.011 0.123 0.059 0.181 0.101 0.027 0.021 0.053 0.043 0.080 0.064 0.027 0.016 0.059 0.032 0.101 0.027 0.016 0 0.027-0.011 0.037-0.021 0.16-0.229 0.485-0.485 0.864-0.779 0.021-0.016 0.027-0.037 0.021-0.059-0.011-0.016-0.032-0.032-0.053-0.032v0zM2.122 2.159c0.619 0.869 1.435 1.691 2.597 2.304-0.475 0.048-0.843-0.053-1.141-0.245-0.389-0.251-0.683-0.661-0.965-1.109 0 0 0-0.005-0.005-0.005-0.011-0.021-0.032-0.027-0.053-0.021-0.016 0.005-0.032 0.016-0.037 0.032s-0.011 0.032 0 0.048c0 0 0 0 0.005 0.005 0.384 0.827 0.704 1.205 0.896 1.483 0.176 0.251 0.251 0.421 0.213 0.784-0.469-0.352-0.837-0.96-1.083-1.6-0.251-0.645-0.379-1.264-0.427-1.675v0zM33.53 2.223c-0.309 0.432-0.608 0.933-0.821 1.515-0.437 1.189-0.528 2.624 0.309 3.877-1.877-0.709-4.72-1.141-7.333-1.387-1.451-0.139-2.821-0.219-3.904-0.261-0.976-0.037-1.595-0.032-1.957-0.011 0.165-0.293 0.571-0.571 1.141-0.805 0.635-0.261 1.445-0.48 2.256-0.656 1.632-0.347 3.301-0.523 3.648-0.533 2.592-0.085 4.416-0.613 5.659-1.184 0.395-0.187 0.715-0.373 1.003-0.555v0zM10.341 2.415c-0.085-0.005-0.187 0.005-0.309 0.032-0.027 0.005-0.043 0.032-0.037 0.059 0.005 0.080 0.043 0.144 0.096 0.187s0.112 0.075 0.176 0.112c0.128 0.080 0.272 0.187 0.384 0.475 0.011 0.021 0.027 0.032 0.048 0.032s0.043-0.011 0.048-0.032c0.021-0.043 0.027-0.080 0.037-0.101 0-0.005 0.005-0.005 0.011-0.011 0.016 0.021 0.037 0.037 0.064 0.064 0.021 0.021 0.048 0.048 0.080 0.059 0.037 0.011 0.080 0.005 0.123-0.005 0.421-0.128 0.704-0.197 0.907-0.208 0.197-0.016 0.309 0.021 0.395 0.091 0.021 0.016 0.048 0.011 0.064-0.005s0.021-0.043 0.011-0.064c-0.005-0.005-0.005-0.005-0.011-0.011-0.208-0.304-0.421-0.411-0.635-0.437-0.219-0.027-0.437 0.016-0.683-0.021-0.251-0.043-0.389-0.107-0.533-0.16-0.075-0.027-0.149-0.048-0.235-0.053v0zM10.399 2.575c0.112 0.016 0.373 0.117 0.475 0.112-0.064 0.224 0.059 0.32 0.171 0.379-0.331 0.043-0.635-0.459-0.645-0.491v0zM7.114 2.575c0.011 0.107 0.016 0.267-0.032 0.4-0.027 0.080-0.069 0.144-0.144 0.171-0.069 0.027-0.176 0.021-0.331-0.048 0 0-0.005 0-0.005 0-0.107-0.053-0.416-0.208-0.752-0.293-0.080-0.021-0.155-0.021-0.235-0.032 0.432-0.128 0.928-0.197 1.499-0.197v0zM11.573 2.735c0.165-0.016 0.304 0.080 0.149 0.165s-0.427 0.213-0.592 0.16c0.16-0.005 0.208-0.187 0.133-0.309-0.053-0.011 0.144 0 0.309-0.016zM12.325 3.279c-0.283-0.005-0.464 0.005-0.597 0.043-0.139 0.037-0.224 0.101-0.331 0.171-0.016 0.011-0.027 0.037-0.021 0.059s0.021 0.037 0.043 0.037c0.101 0.021 0.16 0.032 0.181 0.043 0.011 0.005 0.011 0.011 0.021 0.021 0.005 0.011 0.016 0.027 0.032 0.053 0.005 0.021 0.027 0.032 0.048 0.032s0.043-0.011 0.048-0.032c0.075-0.149 0.139-0.224 0.219-0.267 0.080-0.037 0.192-0.048 0.341-0.059 0.011 0 0.016-0.005 0.027-0.005v-0.005c0 0 0 0 0.005 0 0.021-0.005 0.043-0.027 0.037-0.053s-0.021-0.043-0.043-0.048c-0.005 0.011-0.005 0.011-0.011 0.011 0 0 0 0 0 0v0zM42.389 3.684c-2.016 2.315-2.491 4.816-2.624 5.579-0.267-0.459-0.592-0.971-0.389-1.611v-0.005c0.485-1.163 0.645-1.355 1.925-3.008 0 0 0 0 0.005-0.005 0.016-0.021 0.016-0.053-0.005-0.075-0.021-0.016-0.053-0.016-0.075 0.005 0 0 0 0-0.005 0.005 0 0 0 0-0.005 0.005s-0.011 0.011-0.016 0.016c0 0 0 0-0.005 0-1.376 1.152-2 1.936-2.544 2.453-0.507 0.485-0.949 0.741-1.867 0.88 1.685-1.424 2.459-2.704 5.605-4.24v0zM15.909 3.882c0.016 0.005 0.016 0 0.032 0.005 0.133 0.048 0.304 0.133 0.469 0.267 0.272 0.219 0.523 0.592 0.629 1.184-0.096-0.155-0.224-0.256-0.368-0.315-0.229-0.091-0.459-0.091-0.613-0.091-0.016-0.123-0.021-0.261-0.037-0.373 0.181-0.011 0.363-0.011 0.549 0.181 0.021 0.021 0.053 0.021 0.075 0.005s0.021-0.053 0.005-0.075c0 0 0 0-0.005-0.005-0.235-0.309-0.469-0.469-0.683-0.475-0.021-0.096-0.037-0.208-0.053-0.309v0zM3.53 4.415c0.037 0.021 0.080 0.032 0.117 0.048 0.597 0.437 1.109 0.693 1.605 0.779 0.517 0.085 1.013 0 1.573-0.203h0.005c0.117-0.053 0.347-0.107 0.619-0.149s0.597-0.069 0.917-0.075c0.315 0 0.629 0.021 0.88 0.085 0.176 0.043 0.299 0.112 0.395 0.192-0.496-0.101-0.965-0.139-1.541-0.112-0.016 0-0.027 0.005-0.037 0.016-0.016 0.016-0.037 0.032-0.037 0.075 0 0.021 0.021 0.043 0.032 0.048s0.027 0.011 0.037 0.011c0.043 0.005 0.091 0 0.16-0.011 0.133-0.016 0.331-0.043 0.533-0.027s0.293 0.021 0.747 0.171c0.032 0.032 0.048 0.075 0.064 0.117-0.016-0.005-0.032-0.011-0.059-0.021-0.053-0.016-0.123-0.032-0.213-0.048-0.176-0.037-0.421-0.080-0.699-0.112-0.549-0.064-1.227-0.080-1.765 0.085h-0.005c-0.464 0.192-1.077 0.288-1.68 0.187-0.571-0.096-1.12-0.373-1.541-0.896-0.037-0.048-0.069-0.107-0.107-0.16v0zM40.533 5.37c-1.083 1.307-1.648 2.411-1.947 3.184-0.176 0.464-0.267 0.811-0.341 1.008-0.032 0.085-0.059 0.128-0.080 0.149-0.139-0.112-0.277-0.219-0.427-0.315 0-0.048 0.005-0.101 0.037-0.187 0.037-0.117 0.101-0.261 0.187-0.427 0.171-0.331 0.427-0.757 0.741-1.216 0.485-0.693 1.115-1.477 1.829-2.197v0zM16.090 6.058c0.341 0.229 0.672 0.496 0.853 0.896 0.144 0.32 0.197 0.72 0.085 1.243-0.032-0.251-0.139-0.469-0.299-0.603-0.139-0.112-0.304-0.176-0.475-0.181-0.112 0-0.229 0.037-0.336 0.091 0.032-0.203 0.064-0.395 0.085-0.576 0.048-0.011 0.112-0.016 0.192 0.016 0.096 0.032 0.203 0.096 0.304 0.165s0.192 0.16 0.261 0.24 0.107 0.165 0.107 0.224c0 0.027 0.021 0.048 0.053 0.048s0.053-0.027 0.053-0.053c-0.005-0.080-0.043-0.155-0.091-0.229-0.016-0.032-0.016-0.059-0.037-0.085-0.075-0.112-0.171-0.224-0.277-0.331s-0.219-0.197-0.315-0.267c-0.080-0.053-0.144-0.091-0.208-0.101 0.016-0.165 0.037-0.341 0.043-0.496v0zM12.33 6.255c0.112 0.277 0.139 0.496 0.096 0.672-0.048 0.187-0.16 0.325-0.325 0.437-0.288 0.197-0.715 0.283-1.099 0.347-0.037-0.011-0.112-0.021-0.128-0.032-0.021-0.016-0.027-0.027-0.027-0.037-0.005-0.011-0.005-0.016 0-0.032 0-0.005 0.005-0.011 0.011-0.011 0.016-0.021 0.021-0.037 0.053-0.064 0.064-0.048 0.149-0.107 0.251-0.176 0.197-0.133 0.453-0.304 0.704-0.533 0.16-0.155 0.32-0.352 0.464-0.571v0zM19.37 6.463c4 0.155 5.056 0.432 7.696 0.736 1.824 0.213 3.499 0.699 4.709 1.003 0.011 0 0.016 0.005 0.021 0.005-1.179 0.293-1.717 1.035-1.883 1.765-0.096 0.427-0.075 0.843 0 1.179 0.027 0.112 0.064 0.197 0.096 0.288-1.413-0.864-3.637-1.893-5.755-2.768-1.163-0.48-2.277-0.912-3.189-1.237-0.784-0.283-1.36-0.464-1.744-0.549-0.027-0.133-0.027-0.299 0.048-0.421zM19.061 7.428c0.048 0.005 0.107 0.021 0.203 0.048 0.128 0.037 0.288 0.096 0.48 0.165 0.384 0.139 0.875 0.331 1.419 0.549 1.083 0.437 2.368 0.981 3.371 1.397 1.099 0.459 2.629 1.36 3.888 2.059 0.064 0.032 0.112 0.064 0.176 0.096-0.064 0-0.112-0.011-0.176-0.011-0.421 0.011-0.923 0.096-1.419 0.277-0.955 0.352-1.888 1.099-2.213 2.443-0.037-0.053-0.059-0.091-0.101-0.149-0.555-0.773-1.541-1.947-2.88-3.664-0.827-1.061-1.653-1.835-2.181-2.384-0.267-0.277-0.453-0.496-0.533-0.656-0.032-0.064-0.037-0.123-0.032-0.171v0zM12.25 7.54c0.064 0.331 0.069 0.571 0.021 0.736-0.048 0.176-0.139 0.272-0.283 0.336-0.208 0.096-0.544 0.107-0.912 0.123-0.139-0.021-0.224-0.069-0.272-0.133-0.048-0.069-0.064-0.155-0.048-0.251 0.027-0.192 0.155-0.411 0.272-0.517h0.005c0.037 0 0.043-0.005 0.107 0.005 0.011 0 0.011-0.011 0.021-0.016 0.443-0.032 0.827-0.096 1.088-0.283v0zM33.69 8.266c0.005 0.011 0.016 0.016 0.021 0.021 0.032 0.059 0.032 0.139-0.005 0.224-0.032 0.085-0.096 0.171-0.171 0.224-0.005 0.005-0.005 0-0.011 0.005 0.043-0.053 0.069-0.107 0.080-0.171 0.011-0.069 0-0.144-0.021-0.208 0.011-0.005 0.027-0.011 0.037-0.021 0.037-0.016 0.048-0.048 0.069-0.075zM18.901 8.356c0.027 0.016 0.037 0.011 0.069 0.037 0.16 0.133 0.4 0.4 0.677 0.736 0.555 0.677 1.285 1.664 1.995 2.555 0.736 0.923 1.323 1.979 1.84 2.768 0.085 0.128 0.16 0.229 0.24 0.341-0.245-0.075-0.523-0.128-0.832-0.133-0.165 0-0.336 0.011-0.512 0.037-0.667 0.112-1.355 0.491-1.883 1.307-0.112-0.667-0.347-1.499-0.635-2.448-0.421-1.392-0.667-1.915-0.837-2.251-0.171-0.331-0.267-0.475-0.389-1.104 0 0 0.005-0.005 0.005-0.005-0.021-0.272 0.027-0.789 0.101-1.216 0.037-0.213 0.080-0.411 0.123-0.544 0.016-0.037 0.027-0.053 0.037-0.080v0zM15.754 8.538c0.069 0.101 0.16 0.197 0.277 0.299 0.176 0.144 0.373 0.304 0.533 0.496s0.267 0.432 0.256 0.747c-0.005 0.235-0.123 0.539-0.309 0.88 0.021-0.165 0.016-0.309-0.037-0.432-0.091-0.208-0.261-0.352-0.443-0.453-0.181-0.107-0.368-0.171-0.496-0.224-0.032-0.011-0.043-0.016-0.064-0.027 0.037-0.133 0.085-0.235 0.144-0.277 0.085-0.059 0.192-0.053 0.304-0.016 0.117 0.037 0.235 0.112 0.331 0.197 0.096 0.080 0.165 0.176 0.187 0.224 0.011 0.027 0.043 0.037 0.064 0.032 0.027-0.011 0.043-0.037 0.032-0.064 0 0 0 0 0-0.005 0 0 0-0.005-0.005-0.005-0.149-0.405-0.437-0.517-0.624-0.651-0.091-0.064-0.16-0.133-0.192-0.251-0.016-0.107-0.005-0.261 0.043-0.469v0zM3.077 8.65c0.389-0.016 0.677 0.144 0.827 0.411-0.048 0.032-0.091 0.032-0.16 0.048-0.043-0.149-0.283-0.315-0.496-0.347-0.016-0.011-0.037-0.016-0.059-0.005-0.016 0.011-0.027 0.032-0.027 0.048 0 0.021 0.016 0.037 0.037 0.048 0.155 0.080 0.325 0.139 0.261 0.277-0.080 0-0.128 0.005-0.192-0.005-0.005-0.149-0.315-0.293-0.613-0.405 0.155-0.037 0.293-0.064 0.421-0.069v0zM11.967 8.842c0.027 0.395-0.048 0.624-0.187 0.752s-0.347 0.165-0.576 0.165c-0.224-0.005-0.464-0.053-0.677-0.075-0.005-0.011-0.011-0.021-0.021-0.021h-0.005c-0.064-0.005-0.107-0.021-0.133-0.037-0.027-0.021-0.037-0.048-0.037-0.085-0.005-0.075 0.043-0.181 0.123-0.293s0.181-0.219 0.283-0.288c0.091-0.064 0.165-0.091 0.213-0.085 0.357 0 0.699 0.005 0.907-0.005 0.043-0.011 0.075-0.021 0.112-0.027v0zM35.919 9.135c1.557 0.005 3.531 1.595 3.531 3.877 0 1.584-0.912 4.229-4.293 5.381-0.944-1.867-2.747-3.525-5.072-4.325-0.011-0.005-0.021-0.005-0.032-0.005-0.021 0.005-0.043 0.027-0.043 0.048 0 0.027 0.016 0.048 0.037 0.053 2.533 0.869 4.224 2.837 5.056 4.907 0.224 0.549 0.773 1.307 1.323 1.819s1.179 0.843 1.792 0.859c0.416 0.011 0.88 0.251 1.077 0.789 0.155 0.427 0.144 0.971-0.245 1.563 0.069-0.261 0.011-0.48-0.080-0.624-0.149-0.24-0.464-0.336-0.672-0.331-0.363 0.016-0.571 0.176-1.067 0.437-0.027 0.011-0.037 0.048-0.021 0.075 0.005 0.016 0.181 0.032 0.368 0.037 0.021 0.288 0.459 3.317 0.528 3.744 0.331 2.107 1.787 1.083 2.037 1.125 0.475 0.075 0.576 0.208 0.731 0.357-0.165 0.011-0.293 0.501-0.213 0.821-0.587 0.427-1.179-0.224-1.616-0.224-0.501 0.011-1.045 0.357-1.616 0.539-0.528 0.165-0.789 0.293-1.445-0.005 0.101-0.032 0.224-0.064 0.235-0.064 0.016 0 0.027 0 0.037 0s0.011 0 0.021-0.005c0.021 0 0.037-0.011 0.048-0.032s0.005-0.043-0.011-0.059c-0.016-0.016-0.037-0.021-0.059-0.011 0.005 0 0 0-0.011 0h-0.032c-0.027 0-0.064 0-0.107 0.005-0.091 0-0.208 0.005-0.331 0.005-0.245 0-0.512 0-0.619 0-0.283 0-0.688 0.085-1.029 0.267-0.341 0.187-0.597 0.416-0.912 0.411-0.176-0.005-0.363-0.032-0.517-0.155 0.080-0.288 0.069-0.661-0.149-0.976l-0.053-0.005c0.368-0.053 0.496-0.235 0.741-0.24 0.288-0.005 0.283 0.571 1.76-0.373 0.016-0.011 0.032-0.027 0.027-0.048 0-0.021-0.011-0.043-0.027-0.048-0.016-0.011-0.043-0.005-0.059 0.005-1.307 0.592-0.901 0.144-1.573 0.176-0.64 0.027-0.656 0.24-1.040 0.235-0.197 0-0.432-0.101-0.48-0.192 0.144-0.032 0.203-0.528 0.128-0.779 0-0.011 0.011-0.021 0.011-0.027 0.005-0.021-0.005-0.048-0.021-0.059 0.085-0.101 0.315-0.144 0.517-0.144 0.187 0.005 0.437 0.176 0.725 0.299s0.544-0.101 0.901 0.133c0.027 0.016 0.059 0.005 0.075-0.021s0.005-0.059-0.021-0.075c-0.123-0.069-0.384-0.347-0.677-0.475-0.187-0.080-0.4-0.128-0.597-0.16-0.139-0.128-0.384-0.357-0.352-0.373 0.069-0.043 0.139-0.101 0.203-0.176s0.112-0.16 0.128-0.251c0.011-0.059-0.005-0.085-0.027-0.128 0.005-0.021 0.011-0.032 0.021-0.059 0.075-0.085 0.123-0.128 0.235-0.133 0.171 0.016 0.272 0.080 0.411 0.219 0.144 0.139 0.293 0.347 0.432 0.597 0.203 0.368 0.48 0.576 0.763 0.763-0.091 0.075-0.197 0.165-0.203 0.165-0.016 0-0.027-0.005-0.048 0.005-0.027 0.011-0.037 0.043-0.027 0.069s0.043 0.043 0.069 0.032c0.005 0 0.016 0 0.032 0.005 0.032 0.005 0.069 0.016 0.123 0.032 0.101 0.021 0.235 0.053 0.368 0.075 0.139 0.021 0.283 0.027 0.411 0.005s0.251-0.080 0.315-0.197c0.437-0.795 0.4-1.973 0.144-3.029-0.251-1.045-1.003-2.475-1.035-2.485-0.032-0.347-0.891-1.408-1.077-1.168 0-0.037 0.011-0.075-0.005-0.117-0.021-0.064-0.059-0.144-0.107-0.219-0.096-0.149-0.24-0.309-0.389-0.437s-0.309-0.229-0.453-0.256c-0.075-0.011-0.149-0.005-0.208 0.037-0.016 0.011-0.021 0.037-0.032 0.053-0.021-0.075-0.064-0.149-0.123-0.235-0.107-0.144-0.256-0.299-0.416-0.416-0.16-0.123-0.325-0.213-0.469-0.24-0.075-0.011-0.144-0.011-0.203 0.021-0.005 0.005-0.005 0.011-0.011 0.016-0.021-0.059-0.048-0.117-0.091-0.181-0.101-0.144-0.261-0.299-0.437-0.421s-0.373-0.208-0.555-0.197c-0.101 0.005-0.192 0.048-0.272 0.117-0.005-0.117-0.037-0.235-0.096-0.341-0.107-0.203-0.288-0.384-0.485-0.517s-0.411-0.219-0.592-0.208c-0.091 0.005-0.176 0.037-0.24 0.101l-0.005 0.005c-0.021-0.123-0.064-0.24-0.144-0.331-0.139-0.165-0.352-0.288-0.565-0.357-0.213-0.075-0.432-0.096-0.608-0.064-0.085 0.016-0.165 0.048-0.219 0.101-0.016 0.016-0.021 0.032-0.032 0.048-0.005-0.011 0-0.021-0.011-0.032-0.048-0.064-0.123-0.117-0.203-0.171-0.171-0.101-0.395-0.176-0.619-0.213-0.112-0.016-0.224-0.027-0.331-0.016s-0.203 0.032-0.283 0.075c-0.107 0.053-0.171 0.155-0.203 0.277-0.059-0.096-0.133-0.171-0.245-0.208-0.181-0.069-0.416-0.069-0.635-0.027s-0.427 0.123-0.565 0.229c-0.043 0.032-0.059 0.075-0.085 0.112-0.032-0.021-0.048-0.059-0.085-0.075-0.155-0.069-0.379-0.091-0.603-0.075s-0.443 0.069-0.592 0.187c-0.075 0.059-0.133 0.128-0.155 0.219 0 0.005 0 0.016 0 0.021-0.048-0.027-0.096-0.059-0.16-0.075-0.197-0.037-0.459-0.016-0.699 0.048s-0.464 0.176-0.576 0.331c-0.053 0.069-0.075 0.155-0.069 0.245-0.037-0.011-0.069-0.037-0.117-0.043-0.203-0.027-0.453 0.021-0.677 0.101s-0.421 0.197-0.523 0.347c-0.037 0.053-0.053 0.112-0.059 0.171-0.064-0.027-0.133-0.053-0.208-0.059-0.208-0.011-0.448 0.048-0.656 0.149s-0.389 0.24-0.469 0.4c-0.021 0.037-0.032 0.080-0.037 0.123-0.075-0.011-0.155-0.016-0.235-0.005-0.069 0.011 0.059-0.229 0.187-0.459 0.085-0.112 0.155-0.219 0.256-0.336 0.027-0.005 0.048-0.032 0.043-0.064-0.005-0.027-0.037-0.048-0.064-0.037-0.005 0-0.016 0.005-0.021 0.005-0.512 0.245-0.939 0.869-1.243 1.589s-0.48 1.536-0.475 2.165v0.005c0.069 0.613 0.299 0.912 0.437 1.195 0.133 0.283 0.192 0.555-0.048 1.157 0 0 0 0 0 0.005-0.155 0.309-0.176 0.395-0.603 0.603 0.475-0.976-1.024-1.563-2.667-0.64-0.021 0.005-0.032 0.027-0.032 0.048s0.011 0.037 0.027 0.048c0.016 0.011 0.037 0.011 0.059-0.005 0.117-0.027 0.192-0.027 0.299-0.048 0.213 0.395-0.672 1.243-1.216 2.032-0.288 0.416-1.067 1.488-1.072 1.989s0.123 0.747 0.517 0.736c0.101 0 0.293 0.011 0.523-0.043s0.565-0.176 0.768-0.176c0.203 0 0.331 0.016 0.528 0.181-0.059 0.021-0.469 0.752-0.208 1.035-0.021 0.053-0.213 0.075-0.272 0.075-0.117 0-0.427-0.133-0.603-0.192-0.352-0.117-0.507-0.208-0.875-0.203-0.379 0.005-0.955 0.16-1.365 0.304s-0.779 0.251-1.685 0.277c-0.117 0.005-0.245-0.021-0.357-0.053 0.149-0.235 0.24-0.304 0.251-0.304s0.011 0 0.021-0.005c0.021 0 0.043-0.016 0.048-0.032 0.011-0.021 0-0.043-0.011-0.059s-0.037-0.021-0.059-0.011c0.005 0 0 0-0.011 0-0.005 0-0.021 0-0.032 0-0.027 0-0.064 0-0.107 0.005-0.091 0-0.949 0.155-1.291 0.341s-0.528 0.619-0.843 0.613c-0.176 0-0.245 0-0.405-0.117 0.149-0.709-0.357-0.917-0.133-1.099 0.24 0.032 1.131 0.144 1.963-0.384 0.016-0.011 0.032-0.027 0.032-0.048s-0.011-0.043-0.032-0.048c-0.016-0.011-0.037-0.005-0.053 0.005-0.469 0.299-0.811-0.251-1.173-0.219-0.635 0.053-0.491 0.165-0.875 0.16-0.197 0-0.432-0.101-0.48-0.192 0.133-0.283 0.352-0.672 0.229-0.885 0.080-0.107 0.197-0.123 0.405-0.123 0.187 0 0.277 0.171 0.565 0.293 1.024 0.528 0.725 0.112 1.509 0.4 0.027 0.016 0.059 0.005 0.075-0.021s0.027-0.139-0.075-0.144c-0.885-0.128-1.131-0.491-1.333-0.688-0.064-0.064-0.213-0.107-0.368-0.139-0.427-0.395-0.427-0.747-0.384-0.773 0.069-0.043 0.299-0.352 0.256-0.427 0.096-0.107 0.16-0.075 0.288-0.085 0.432 0.011 0.891 0.667 0.763 0.923-0.005 0.016 0.379 0.363 0.613 0.651 0.187 0.224 0.571 0.688 1.077 0.597 0.005 0.011 0.011 0.027 0.027 0.032s0.037 0 0.053-0.011c0.96-0.869 1.653-2.272 2.117-3.515 0.229-0.624 0.4-1.205 0.517-1.664s0.171-0.784 0.171-0.923c0-0.699-0.165-1.808-0.149-2.891 0.016-0.987 0.187-1.941 0.747-2.528 0.139-0.027 0.277-0.064 0.421-0.117 0.357-0.128 0.704-0.352 0.981-0.667 0.011 0.080 0.027 0.171 0.053 0.261 0.059 0.208 0.16 0.437 0.299 0.656 0.277 0.437 0.704 0.832 1.264 0.912h0.005c0.005 0 0.011 0.005 0.011 0.005 0.027 0.011 0.059-0.005 0.064-0.037 0-0.005-0.005-0.005-0.005-0.011 0 0-0.005 0-0.005-0.005 0-0.021-0.005-0.043-0.027-0.048-0.005-0.005-0.011-0.005-0.016-0.005-0.075-0.011-0.117-0.043-0.149-0.091s-0.048-0.112-0.053-0.197c-0.005-0.165 0.053-0.389 0.133-0.619 0.064-0.181 0.149-0.347 0.229-0.507 0.16 0.347 0.4 0.725 0.789 0.965 0.448 0.277 1.072 0.363 1.867 0.011 0 0 0.005 0 0.005 0 0.005 0 0.011-0.005 0.016-0.005 0.011-0.005 0.011-0.021 0.011-0.032 0.005-0.005 0.016-0.005 0.021-0.016 0-0.005-0.005-0.011-0.005-0.021 0 0 0 0-0.005 0 0-0.016 0-0.037-0.016-0.043-0.597-0.288-0.763-0.64-0.779-0.981-0.011-0.187 0.027-0.363 0.075-0.523 0.32 0.363 0.699 0.645 1.040 0.773 0.187 0.069 0.363 0.101 0.507 0.069 0.069-0.016 0.128-0.053 0.176-0.101 0.021 0.075 0.048 0.139 0.085 0.187s0.091 0.080 0.149 0.101c0.005 0.117-0.016 0.203-0.064 0.256-0.064 0.064-0.155 0.091-0.245 0.069h-0.021l-0.005 0.005h-0.032c-0.005 0-0.005 0-0.005 0.005-0.005 0.005-0.011 0.011-0.011 0.016 0 0-0.005 0.005-0.005 0.005l-0.005 0.005c-0.005 0.011-0.005 0.021-0.005 0.032v0.005c0 0 0 0.005 0.005 0.005v0.005l0.005 0.005c0.005 0.011 0.021 0.011 0.032 0.021 0 0 0 0.005 0.005 0.005 0.037 0.043 0.080 0.075 0.133 0.096 0.016 0.005 0.037 0.011 0.053 0.016 0.021 0.005 0.037 0.016 0.059 0.016 0.016 0 0.032-0.011 0.048-0.011 0.032 0 0.059 0.011 0.091 0.005 0.16-0.027 0.325-0.112 0.469-0.224 0.144-0.117 0.261-0.256 0.32-0.411s0.064-0.325-0.043-0.464c-0.005-0.005-0.016-0.005-0.021-0.005 0.016-0.123 0.021-0.256 0.011-0.411 0.053-0.16 0.176-0.363 0.373-0.565 0.219-0.224 0.512-0.448 0.853-0.613 0.656-0.315 1.499-0.4 2.389 0.059 0.016 0.016 0.027 0.032 0.043 0.048 0.075 0.064 0.149 0.096 0.224 0.139 0.021 0.133-0.005 0.219-0.064 0.261-0.064 0.048-0.165 0.064-0.256 0.048-0.005 0-0.011 0-0.011 0-0.005 0-0.011 0-0.016 0-0.011 0-0.021 0.005-0.032 0.011-0.005 0.005-0.011 0.011-0.011 0.021v0.005c-0.005 0.011 0 0.027 0.005 0.037v0.005l0.005 0.005v0.005h0.005c0.005 0.011 0.016 0.011 0.021 0.021 0.037 0.048 0.080 0.085 0.133 0.112 0.021 0.011 0.043 0.016 0.064 0.027 0.027 0.011 0.053 0.016 0.085 0.021s0.059 0.021 0.091 0.021c0.149 0.005 0.304-0.043 0.437-0.117s0.245-0.181 0.299-0.315c0.032-0.080 0.032-0.171 0.005-0.261 0.027-0.069 0.032-0.144 0.005-0.235-0.021-0.075-0.075-0.165-0.117-0.256 0-0.112 0.011-0.219 0.021-0.331 0.181-0.549 0.464-0.875 0.837-1.072 0.411-0.213 0.939-0.277 1.531-0.267 2 0.032 3.376 0.485 4.469 0.923s1.904 0.891 2.784 0.869c0.827-0.016 1.589-0.213 2.155-0.635s0.923-1.077 0.923-1.952c0-0.325-0.107-0.608-0.245-0.864-0.261-0.485-0.693-0.853-1.147-1.019-0.176-0.064-0.352-0.101-0.523-0.101-0.171-0.005-0.336 0.027-0.48 0.096-0.293 0.144-0.491 0.464-0.491 0.907 0 0.464 0.395 0.816 0.837 0.821 0.437 0.005 0.901-0.325 1.125-1.061 0.165 0.144 0.309 0.315 0.416 0.507-0.096 0.704-0.416 1.115-0.811 1.376-0.4 0.267-0.875 0.363-1.227 0.379-0.923 0.048-1.947-0.891-1.941-2.192-0.005-1.195 0.997-2.197 2.576-2.192v0zM4.138 9.231c0.491 0.448 0.011 0.779 0.091 1.285 0.341 2.080 1.221 2.336 1.365 3.243 0.485 3.008 1.824 4.443 1.92 4.544 0.043 0.075 0.101 0.133 0.176 0.165-0.032 0.235 0.027 0.608 0.155 0.955 0.123 0.325 0.309 0.624 0.56 0.757v0.005c0.011 0.272 0.112 0.603 0.272 0.885 0.16 0.277 0.384 0.507 0.645 0.581 0.096 0.107 0.16 0.149 0.251 0.24 0.219 0.491-1.264 1.029-1.899 1.221-0.229 0.651-0.987 1.173-1.557 1.163-0.421-0.011-0.453-0.085-0.715-0.213 0.917-0.165 1.264-0.139 1.227-2.272 0-0.048 0-0.085-0.005-0.112 0-0.016 0-0.027-0.005-0.032 0-0.005 0-0.005 0-0.011s0-0.005-0.005-0.016c-0.005-0.021-0.027-0.037-0.053-0.037-0.016 0-0.032 0.011-0.037 0.021-0.011 0.016-0.011 0.032-0.005 0.048v0.011c-0.437 1.312-1.659-3.76-1.92-5.605-0.059-0.437 0.405-1.371 0.357-1.877 0.016-0.016-0.107-0.032-0.117-0.021-0.037 0.219-0.133 0.475-0.235 0.72 0 0 0 0-0.005 0.005-0.027 0.021-0.064 0.043-0.107 0.075-0.080 0.069-0.171 0.165-0.256 0.299-0.171 0.267-0.373 0.421-0.133 1.056 0.091 0.235-0.331 0.667-0.491 0.757 0.011-0.379-0.608-0.491-0.72-0.437-0.059-0.411 0.128-0.944 0.411-1.184 0.32-0.325 0.576-1.371 0.379-1.851-0.016-0.053-0.069-0.085-0.123-0.075-0.032 0.005-0.059 0.027-0.075 0.053s-0.016 0.059-0.005 0.085c0.037 0.064 0.053 0.155 0.059 0.256 0 0 0 0.005 0 0.005-0.144 0.123-0.491-0.555-0.197-0.763 0.053 0.005 0.123 0.027 0.16 0.021 0.059-0.011 0.096-0.069 0.085-0.128s-0.069-0.096-0.128-0.085c-0.192 0.037-0.784-0.165-1.141-0.389-1.051 0.357-1.248 0.309-1.541-0.048 0.176-0.229 0.027-0.619 0.021-0.645 0.203-0.176 0.389-0.192 0.603-0.149 0.112 0.021 0.427 0.107 0.619 0.293 0.373-0.133 0.981 0.16 1.061 0.432 0.011 0.037 0.037 0.059 0.069 0.069 0.005 0.005 0.016 0.032 0.016 0.032 0.037 0.011 0.085 0 0.112-0.032s0.032-0.075 0.016-0.112c-0.069-0.256-0.379-1.509-1.296-1.52h-0.005c0.005 0-0.469-0.096-0.485-0.613 0.165-0.059 0.56-0.352 0.533-0.677 0.005 0 0.011 0 0.016 0.005 0.459 0.128 0.672 0.608 0.672 0.827 0.181 0.128 0.816 0.299 0.987 1.979-0.005 0.043 0.021 0.080 0.053 0.101 0.037 0.021 0.085 0.016 0.117-0.011s0.048-0.069 0.037-0.112c-0.037-0.411-0.107-0.736-0.197-1.008 0.011-0.464-0.085-0.789-0.411-1.205 0-0.005-0.005-0.016-0.011-0.021-0.165-0.283-0.192-0.571 0.011-0.789 0.331 0.032 0.8-0.133 0.827-0.144v0zM1.391 9.54c0.128 0 0.256 0.011 0.373 0.032 0.011 0.037 0.005 0.16-0.005 0.245-0.011 0.016-0.032 0.037-0.048 0.053-0.224-0.037-0.651-0.235-0.816-0.021-0.027 0.011-0.043 0.027-0.037 0.043s0.027 0.032 0.053 0.037c0.027 0.005 0.059 0 0.075-0.011 0.176-0.048 0.459 0.005 0.533 0.123-0.027 0.016-0.059 0.032-0.091 0.048-0.192-0.048-0.491-0.091-0.784 0.085 0-0.48 0.368-0.629 0.747-0.635v0zM10.143 9.866c0.123-0.005 0.283 0.011 0.48 0.043 0.24 0.037 0.501 0.075 0.752 0.059 0.048-0.005 0.085-0.021 0.133-0.027 0.080 0.405 0.021 0.645-0.123 0.773-0.149 0.133-0.4 0.171-0.683 0.16s-0.587-0.069-0.848-0.101c-0.043-0.005-0.080-0.005-0.117-0.005-0.043-0.005-0.085-0.016-0.107-0.032-0.032-0.021-0.048-0.043-0.059-0.075-0.016-0.064 0.005-0.165 0.064-0.277 0.117-0.203 0.331-0.411 0.507-0.517v0zM9.482 10.948c0.128 0.005 0.267 0.011 0.469 0.043 0.277 0.043 0.592 0.085 0.891 0.075 0.048 0 0.091-0.016 0.133-0.021 0.069 0.501-0.016 0.757-0.176 0.891s-0.421 0.155-0.715 0.133c-0.293-0.021-0.619-0.080-0.912-0.085-0.069 0-0.128 0.016-0.192 0.021-0.005 0-0.011-0.005-0.021-0.005-0.016 0-0.037 0.005-0.053 0.005-0.021-0.016-0.043-0.032-0.053-0.064-0.021-0.075 0-0.208 0.069-0.347 0.117-0.245 0.347-0.501 0.56-0.645v0zM15.285 11.188c0.357 0.069 0.683 0.256 0.875 0.533 0.181 0.261 0.245 0.597 0.133 0.987-0.032-0.107-0.075-0.197-0.133-0.251-0.096-0.085-0.219-0.107-0.341-0.101-0.192 0.011-0.357 0.085-0.464 0.133-0.011-0.048-0.027-0.085-0.037-0.139-0.016-0.096-0.021-0.219-0.032-0.331 0.053-0.021 0.144-0.032 0.245-0.021 0.219 0.016 0.491 0.096 0.619 0.208 0.021 0.016 0.053 0.016 0.075-0.005 0.016-0.021 0.016-0.053-0.005-0.075-0.304-0.267-0.539-0.325-0.699-0.368-0.080-0.021-0.144-0.037-0.197-0.075-0.021-0.016-0.037-0.059-0.059-0.080 0.005-0.133 0.016-0.272 0.021-0.416v0zM18.303 11.636c0.021 0.005 0.064 0.021 0.107 0.075s0.091 0.139 0.144 0.24c0.096 0.203 0.203 0.485 0.293 0.789 0.187 0.603 0.336 1.296 0.389 1.643 0.187 1.179 0.192 1.947 0.24 2.421 0.005 0.048 0.016 0.080 0.021 0.123-0.080 0.048-0.176 0.075-0.293 0.053-0.149-0.021-0.315-0.096-0.485-0.203-0.331-0.203-0.645-0.523-0.784-0.789 0-0.011 0-0.021-0.005-0.027-0.011-0.016-0.027-0.021-0.048-0.021h-0.005c0 0-0.005-0.005-0.005-0.005-0.027 0-0.048 0.016-0.053 0.043-0.005 0.016-0.005 0.016-0.005 0.032-0.245 0.288-0.373 0.555-0.4 0.789-0.027 0.251 0.048 0.464 0.176 0.64s0.293 0.309 0.464 0.4c0.091 0.053 0.16 0.064 0.24 0.085-0.32 0.043-0.715 0.096-1.099-0.016-0.453-0.133-0.875-0.496-1.061-1.419 0 0-0.005 0-0.005-0.005 0-0.011 0.011-0.021 0.005-0.032-0.011-0.021-0.032-0.032-0.053-0.027-0.011 0-0.021 0.005-0.027 0.016 0 0-0.005 0.005-0.005 0.005-0.4 0.309-0.656 0.8-0.741 1.227-0.043 0.219-0.043 0.416 0.011 0.576 0.005 0.011 0.016 0.016 0.021 0.027-0.405-0.24-0.661-0.533-0.8-0.864-0.171-0.405-0.176-0.864-0.117-1.333 0.011-0.016 0.021-0.032 0.032-0.037 0.005-0.005 0.011-0.011 0.016-0.016s0.011-0.016 0.011-0.016c0 0 0-0.005 0-0.005 0.005-0.005 0.005-0.005 0.011-0.011 0 0 0.005 0 0.005-0.016 0 0 0.005-0.005 0.005-0.005v-0.011l-0.011-0.021-0.021-0.016-0.021-0.005-0.011 0.005c0 0-0.005 0.005-0.011 0.005-0.011 0.005-0.011 0.005-0.011 0.005s-0.005-0.005-0.005-0.005c-0.016 0-0.032 0.011-0.037 0.027-0.16 0.272-0.571 0.699-1.077 0.987-0.453 0.256-0.981 0.389-1.483 0.24 0.309-1.019 0.859-1.653 1.456-2.005 0.571-0.336 1.168-0.421 1.605-0.379 0 0.005 0 0.005-0.005 0.005-0.069 0.251-0.107 0.581-0.107 0.96v0.011c0 0.032 0.021 0.053 0.048 0.059 0.032 0 0.053-0.021 0.059-0.048v-0.005c0-0.005 0.011 0 0.011-0.005 0.059-0.304 0.293-0.699 0.576-0.976 0.139-0.139 0.293-0.251 0.437-0.315 0.112-0.048 0.208-0.053 0.304-0.037-0.011 0.096-0.027 0.176-0.032 0.288-0.021 0.443-0.011 0.971-0.016 1.349v0.011c0 0.027 0.016 0.048 0.043 0.053h0.005c0 0 0 0.005 0.005 0.005 0.011 0 0.016-0.011 0.027-0.021 0.011-0.005 0.021-0.005 0.027-0.016 0 0 0-0.005 0-0.005s0.005 0 0.005-0.005c0-0.005 0-0.005 0-0.011 0.181-0.779 0.368-1.445 0.549-1.867 0.091-0.213 0.187-0.363 0.261-0.432 0.037-0.032 0.069-0.048 0.096-0.048 0.021 0 0.048 0.016 0.075 0.037 0 0.005 0 0.005 0.005 0.011 0.011 0.032 0.021 0.085 0.032 0.149 0.021 0.128 0.043 0.309 0.064 0.507 0.037 0.4 0.064 0.88 0.091 1.205 0 0 0 0.005 0 0.005 0 0.027 0.027 0.053 0.053 0.053s0.053-0.021 0.053-0.053c0-0.005 0-0.005 0-0.005 0.043-1.035 0.251-2.117 0.459-2.933 0.101-0.405 0.208-0.747 0.288-0.976-0.005-0.048 0-0.075 0.016-0.112v0zM0.65 11.93c0.021 0.053 0.027 0.075 0.043 0.16-0.128 0.011-0.283 0.043-0.405 0.187-0.011 0.011-0.016 0.032-0.011 0.048s0.016 0.032 0.037 0.032c0.016 0.005 0.037-0.005 0.048-0.021 0.085-0.107 0.229-0.101 0.341-0.080 0 0.080-0.027 0.16-0.064 0.245-0.128-0.027-0.304-0.032-0.453 0.181-0.123-0.517 0.24-0.709 0.464-0.752v0zM8.922 12.218c0.139-0.011 0.288-0.005 0.443 0.005 0.309 0.027 0.635 0.096 0.928 0.101 0.096 0.005 0.187-0.016 0.272-0.027 0.064 0.523-0.032 0.816-0.219 0.981s-0.48 0.213-0.811 0.219c-0.325 0.005-0.683-0.037-0.992-0.027-0.144 0.005-0.283 0.021-0.4 0.059-0.037-0.016-0.059-0.037-0.069-0.091-0.021-0.107 0.037-0.315 0.149-0.523s0.272-0.427 0.432-0.576c0.043-0.037 0.080-0.059 0.123-0.085 0.048-0.005 0.091-0.032 0.144-0.037v0zM30.373 12.575c0.032 0.005 0.080 0.027 0.112 0.032-0.016 0.053-0.043 0.117-0.085 0.171-0.011 0.011-0.021 0.011-0.032 0.021 0.016-0.043 0.027-0.091 0.021-0.139 0.005-0.032-0.005-0.053-0.016-0.085zM10.277 13.636c0.139 0.491 0.080 0.779-0.091 0.955-0.181 0.181-0.496 0.261-0.853 0.309s-0.752 0.059-1.088 0.139c-0.139 0.032-0.261 0.091-0.373 0.155-0.021-0.016-0.043-0.027-0.059-0.059-0.048-0.107-0.059-0.304-0.032-0.507 0.027-0.208 0.085-0.427 0.16-0.597 0.037-0.085 0.075-0.16 0.117-0.208 0.016-0.021 0.027-0.021 0.043-0.032 0.197-0.053 0.427-0.080 0.677-0.075 0.347 0.005 0.72 0.037 1.056 0.016 0.149-0.021 0.304-0.048 0.443-0.096v0zM10.053 14.986c0.133 0.235 0.208 0.432 0.229 0.581 0.021 0.16-0.005 0.272-0.069 0.363-0.128 0.181-0.432 0.272-0.795 0.336s-0.779 0.096-1.141 0.192c-0.192 0.048-0.363 0.123-0.501 0.224-0.027-0.016-0.053-0.027-0.075-0.064-0.048-0.096-0.059-0.272-0.037-0.464 0.027-0.192 0.085-0.395 0.155-0.555 0.037-0.080 0.075-0.144 0.112-0.192 0.021-0.027 0.037-0.032 0.059-0.043 0.123-0.048 0.256-0.085 0.411-0.112 0.357-0.059 0.763-0.075 1.131-0.133 0.192-0.027 0.368-0.069 0.523-0.133v0zM24.879 15.626c-0.005 0.176-0.117 0.299-0.261 0.352-0.075 0.027-0.155 0.032-0.235 0.021-0.011 0-0.021-0.005-0.032-0.011-0.021-0.005-0.037-0.027-0.053-0.032 0.155 0 0.283-0.043 0.357-0.123 0.053-0.053 0.091-0.123 0.112-0.176 0.005-0.005 0-0.005 0.005-0.011 0.032 0 0.069-0.016 0.107-0.021v0zM10.17 16.367c0.128 0.155 0.208 0.299 0.24 0.416 0.032 0.128 0.021 0.229-0.027 0.325-0.096 0.192-0.347 0.357-0.667 0.496s-0.704 0.267-1.056 0.395c-0.192 0.069-0.373 0.144-0.533 0.224-0.181-0.037-0.304-0.139-0.384-0.277-0.080-0.149-0.112-0.341-0.101-0.523 0.005-0.187 0.053-0.363 0.123-0.485 0.011-0.016 0.016-0.021 0.027-0.032 0.165-0.107 0.389-0.165 0.64-0.208 0.363-0.059 0.784-0.069 1.157-0.139 0.213-0.037 0.416-0.096 0.581-0.192zM2.97 16.884c0.059 0.021 0.117 0.048 0.176 0.075-0.069 0.117-0.176 0.277-0.336 0.272-0.021 0-0.043 0.005-0.053 0.021s-0.011 0.043 0 0.059 0.032 0.027 0.053 0.021c0.208 0.005 0.384-0.176 0.501-0.293 0.069 0.043 0.133 0.080 0.181 0.128-0.192 0.176-0.635 0.469-1.077 0.048 0.283 0.032 0.464-0.187 0.555-0.331v0zM20.223 17.38c0 0.187-0.117 0.347-0.267 0.432-0.075 0.043-0.208 0.053-0.181 0.043 0.091-0.032 0.155-0.096 0.203-0.165s0.075-0.139 0.091-0.203c0.005-0.027 0.005-0.037 0.011-0.059 0.053-0.005 0.096-0.027 0.144-0.048v0zM26.117 17.418c0.363-0.016 0.704 0.16 0.795 0.4 0 0.016 0 0.032-0.005 0.053-0.005 0.064-0.011 0.149-0.016 0.251-0.011 0.203-0.032 0.475-0.048 0.741-0.032 0.48-0.059 0.869-0.064 0.96-0.464 0.347-0.859 0.016-0.992-0.261-0.016-0.091-0.085-0.453-0.171-0.912-0.048-0.256-0.091-0.512-0.128-0.709-0.016-0.080-0.027-0.139-0.037-0.192 0.181-0.219 0.427-0.32 0.667-0.331v0zM24.671 17.519c0.192 0.005 0.379 0.085 0.517 0.261 0.011 0.059 0.021 0.128 0.037 0.219 0.037 0.192 0.085 0.453 0.133 0.709 0.085 0.469 0.16 0.859 0.171 0.933-0.133 0.229-0.837 0.395-1.088 0.053 0-0.005 0.005-0.016 0.005-0.021l-0.464-1.877c0.096-0.139 0.389-0.283 0.688-0.277v0zM10.319 17.61c0.256 0.16 0.432 0.304 0.539 0.437s0.149 0.256 0.144 0.363c-0.011 0.224-0.213 0.432-0.523 0.629-0.304 0.197-0.704 0.379-1.072 0.555-0.181 0.085-0.347 0.171-0.501 0.251-0.181 0.032-0.336-0.011-0.469-0.112-0.144-0.112-0.261-0.288-0.341-0.48s-0.117-0.395-0.112-0.56c0.005-0.112 0.032-0.197 0.075-0.261 0.645-0.277 1.435-0.416 2-0.667 0.096-0.037 0.176-0.096 0.261-0.155v0zM23.173 17.695c0.181-0.016 0.373 0.037 0.549 0.171l0.453 1.803c-0.128 0.336-0.688 0.448-0.912 0.315l-0.683-1.867c-0.027-0.171 0.251-0.395 0.592-0.421zM27.471 17.727c0.379 0.016 0.933 0.405 0.928 0.741l-0.464 1.829c-0.091 0.229-0.768 0.139-0.901-0.347 0 0 0 0 0-0.005 0 0 0.032-0.528 0.069-1.061 0.016-0.267 0.037-0.539 0.048-0.747 0.005-0.101 0.011-0.187 0.011-0.251 0-0.016 0-0.021 0.005-0.032 0.069-0.096 0.176-0.133 0.304-0.128v0zM22.069 18.079c0.096 0 0.176 0.027 0.245 0.069l0.704 1.931c-0.075 0.24-0.901 0.693-1.125 0.437l-0.704-1.941c0.027-0.235 0.512-0.496 0.88-0.496zM28.943 18.468c0.384 0 0.832 0.347 0.827 0.864l-0.731 1.824c-0.261 0.107-0.885-0.149-0.891-0.635l0.491-1.947c0.091-0.064 0.192-0.107 0.304-0.107v0zM20.618 18.591c0.112-0.005 0.219 0.037 0.325 0.107l0.683 1.893c-0.080 0.357-0.779 0.784-1.061 0.469l-0.8-1.835c0.005-0.005 0.005-0.037 0.011-0.027 0.016-0.149 0.427-0.597 0.843-0.608zM11.087 18.9c0.384 0.24 0.523 0.491 0.507 0.747s-0.192 0.533-0.448 0.789c-0.405 0.405-0.971 0.72-1.429 0.928-0.107 0-0.229-0.043-0.352-0.128-0.144-0.101-0.283-0.251-0.395-0.411s-0.187-0.331-0.213-0.469c-0.011-0.069-0.011-0.128 0-0.176 0.011-0.037 0.032-0.059 0.059-0.080 0.651-0.293 1.456-0.549 1.973-0.912 0.123-0.085 0.219-0.181 0.299-0.288v0zM19.269 19.236c0.107-0.016 0.197 0 0.283 0.037l0.832 1.904c0.016 0.496-0.971 0.96-1.195 0.747l-0.747-2.080c-0.016-0.203 0.443-0.555 0.827-0.608zM30.287 19.402c0.368 0.011 0.864 0.24 0.848 0.581l-0.709 1.925c-0.368 0.277-1.131-0.368-1.152-0.629l0.725-1.797c0.069-0.053 0.165-0.080 0.288-0.080v0zM17.834 19.78c0.117-0.037 0.256-0.005 0.405 0.139l0.752 2.080c-0.021 0.219-0.843 0.8-1.28 0.544-0.096-0.235-0.464-1.088-0.555-1.643 0.048-0.181 0.101-0.363 0.165-0.517s0.133-0.251 0.197-0.379c0.080-0.069 0.187-0.181 0.315-0.224v0zM25.674 20.058c0.005 0.005 0.005 0.011 0.005 0.016 0.021 0.155 0.939 0.331 1.051 0.315-0.069 0.197 0.523 0.581 0.843 0.709 0.091 0.117 0.085 0.357 0.075 0.485-0.032 0.331 0.075 0.757 0.549 1.061 0.309 0.197 1.355 0.56 1.36 1.403 0.005 0.608-0.48 0.853-0.699 0.992 0.192-0.357-0.011-0.725-0.411-0.8-0.283-0.043-0.987-0.085-1.595-0.032-0.059 0.005-0.101 0.059-0.096 0.117s0.059 0.101 0.117 0.096c0.267 0.053 0.4 0.043 0.357 0.277 0 0.005 0.005 0.011 0.005 0.016-0.965 0.763-3.051 2.72-3.109 3.467-0.016 0.208 0.203 0.437 0.485 0.411 0.016 0 1.019-0.491 1.44-0.112-0.229 0.229-0.059 0.768-0.064 0.795-0.533 0.384-1.157-0.16-2.192-0.171s-1.883 0.667-2.549 0.683c-0.085 0-0.128-0.016-0.181-0.032 0.059-0.080 0.107-0.16 0.112-0.16 0.011 0 0.064-0.032 0.075-0.037 0.021 0 0.037-0.011 0.048-0.032 0.005-0.021 0.005-0.043-0.011-0.059s-0.037-0.021-0.059-0.011c0.005 0 0 0-0.011 0s-0.021 0-0.032 0c-0.027 0-0.464 0.112-0.587 0.112-0.245 0-0.784 0.181-1.125 0.368-0.229 0.096-0.672 0.597-1.355 0.443 0.080-0.288-0.027-0.661-0.245-0.976 0.037-0.005 0.107-0.096 0.144-0.176 1.008-0.171 0.901 0.347 1.136-0.032 0.149-0.245 0.229 0.405 1.477-0.629 0.016-0.011 0.027-0.027 0.027-0.048s-0.011-0.037-0.032-0.048c-0.016-0.011-0.037-0.011-0.053 0.005-1.499 0.619-1.051 0.187-1.723 0.219-0.64 0.027-0.464 0.176-0.848 0.171-0.197-0.005-0.416-0.181-0.464-0.272 0.16-0.037 0.165-0.544 0.048-0.763 0.080-0.107 0.32-0.149 0.528-0.149 0.571 0 0.789 0.517 1.392 0.576 0.432 0 0.821-0.357 1.179-0.117 0.027 0.016 0.059 0.005 0.075-0.021 0.011-0.021 0-0.043-0.016-0.059 2.603 0.085 4.528-5.605 4.117-6.224 0-0.016-0.005-0.032-0.021-0.043-0.005-0.005-0.011 0-0.016-0.005-0.053-0.171-0.155-0.4-0.427-0.496 0-0.005 0-0.021-0.005-0.021-0.069-0.080-0.197-0.587-0.731-0.656 0.027-0.128 0.048-0.224 0.053-0.293 0.272-0.064 0.56-0.165 0.624-0.245 0.16 0.203 1.376 0.176 1.333-0.016v0zM31.541 20.154c0.341 0 0.816 0.293 0.859 0.581l-0.587 1.531c-0.272 0.32-0.933 0.085-1.029-0.005-0.069-0.064-0.091-0.181-0.101-0.299l0.619-1.723c0.064-0.053 0.144-0.085 0.24-0.085zM11.541 20.324c-0.005 0.080-0.016 0.16-0.021 0.235-0.027 0.464-0.032 0.885-0.037 1.275 0 0-0.005 0-0.005 0v0.005c-0.080 0.283-0.192 0.453-0.325 0.544s-0.283 0.101-0.448 0.048c-0.309-0.101-0.656-0.448-0.896-0.907 0.64-0.219 1.285-0.619 1.675-1.104 0.027-0.032 0.037-0.064 0.059-0.096zM23.359 20.431c-0.053 0.699-1.173 1.536-1.611 1.52 0 0-0.005-0.005-0.005-0.005-0.080-0.069-0.176-0.112-0.245-0.192-0.16-0.283 1.509-1.227 1.861-1.323v0zM27.893 20.868c0.005 0.005 0.011 0.011 0.016 0.021-0.011 0.005-0.016 0.005-0.027 0.011 0.005-0.016 0.005-0.021 0.011-0.032zM23.706 20.911c0.443 0.043 0.597 0.565 0.453 0.64 0.021 0.027-0.405 0.992-0.88 1.237-0.16 0.085-0.379 0.043-0.507 0.021-0.245-0.101-0.517-0.347-0.603-0.603 0.123-0.224 0.768-0.437 1.323-1.275 0.080-0.021 0.149-0.027 0.213-0.021v0zM32.623 20.927c0.309-0.069 0.923 0.267 0.949 0.731l-0.352 0.96c-0.213 0.155-1.179 0.176-1.189-0.197l0.555-1.472c0.016-0.005 0.021-0.021 0.037-0.021zM17.055 21.679c0.187-0.107 0.384 0.672 0.469 0.923l-0.005 0.005c0 0.043-0.336 0.96-0.565-0.347 0.005-0.080 0.037-0.315 0.064-0.523 0.011-0.021 0.021-0.053 0.037-0.059zM24.437 21.759c0.053 0.075 0.203 0.080 0.251 0.309-0.053 0.373-0.16 0.816-0.315 1.307-0.224 0.091-0.619-0.048-0.853-0.187-0.043-0.059-0.080-0.123-0.043-0.208 0.517-0.347 0.773-0.96 0.859-1.184 0.037-0.037 0.080-0.069 0.101-0.037zM33.738 21.914c0.197-0.027 0.757 0.379 0.821 0.907l0.011 0.032c-0.091 0.315-0.88 0.245-1.099-0.149l0.267-0.789zM11.461 22.303c-0.005 0.219-0.016 0.384-0.027 0.528-0.059-0.053-0.107-0.128-0.133-0.208 0.005-0.005 0.011-0.005 0.011-0.011 0.059-0.080 0.107-0.187 0.149-0.309v0zM18.81 26.314c0.149 0 0.197 0.032 0.336 0.171 0.144 0.139 0.245 0.379 0.507 0.64 0.24 0.24 0.885 0.581 1.264 0.683-0.133 0.043-0.272 0.075-0.411 0.096-0.357-0.112-0.789 0.155-1.387-0.352-0.085-0.069-0.304-0.123-0.523-0.155-0.123-0.101-0.459-0.357-0.421-0.379 0.16-0.256 0.341-0.512 0.293-0.587 0.075-0.096 0.192-0.123 0.341-0.117v0zM17.866 26.383c0.155-0.032 0.325 0.016 0.448 0.080-0.016 0.032-0.032 0.069-0.048 0.101-0.101-0.064-0.229-0.112-0.464-0.059-0.021 0.005-0.037 0.016-0.048 0.032s0 0.043 0.016 0.053 0.037 0.016 0.059 0.005c0.187-0.043 0.277 0.032 0.363 0.107-0.016 0.037-0.037 0.069-0.053 0.101-0.112-0.085-0.528-0.352-0.64 0.069 0.016-0.309 0.181-0.453 0.368-0.491zM32.362 26.591c0.171 0.016 0.288 0.085 0.368 0.139 0.005 0.032 0.027 0.059 0.021 0.091 0 0.011-0.011 0.021-0.016 0.032-0.133-0.080-0.363-0.176-0.629-0.117-0.021 0.005-0.037 0.016-0.048 0.032-0.005 0.016-0.005 0.037 0.011 0.048s0.043 0.016 0.064 0.011c0.229-0.053 0.368 0.128 0.48 0.219-0.043 0.048-0.096 0.091-0.144 0.123-0.080-0.069-0.496-0.427-0.837 0.048 0.208-0.533 0.491-0.651 0.731-0.624v0zM5.941 26.644c0.165-0.032 0.283 0.096 0.352 0.181 0 0.016-0.011 0.037-0.011 0.043 0.011 0.011 0 0.037-0.005 0.059-0.101-0.053-0.229-0.075-0.464-0.021-0.021 0.005-0.037 0.016-0.048 0.032s0 0.037 0.016 0.048c0.016 0.011 0.037 0.016 0.059 0.011 0.192-0.043 0.261 0.021 0.341 0.096-0.043 0.059-0.080 0.091-0.107 0.123-0.128-0.085-0.448-0.261-0.603 0 0.171-0.395 0.331-0.544 0.469-0.571v0zM17.994 26.97c0 0 0.005 0.005 0.005 0.005-0.005 0-0.005 0.005-0.011 0.005 0-0.005 0.005-0.011 0.005-0.011zM17.263 27.78c0.011 0 0.011 0 0.021 0.005 0.027 0.016 0.075 0.037 0.091 0.048 0.027 0.021 0.032 0.064 0.048 0.091-0.149-0.016-0.331-0.005-0.491 0.128-0.016 0.011-0.027 0.032-0.021 0.048s0.016 0.037 0.037 0.048c0.021 0.005 0.037 0 0.053-0.016 0.16-0.133 0.336-0.027 0.469 0.021 0 0.059-0.011 0.101-0.027 0.16-0.128-0.107-0.437-0.277-0.699 0.021-0.037-0.496 0.32-0.56 0.517-0.555v0zM31.727 28.244c0.043 0 0.048 0.005 0.080 0.011 0.016 0.064 0.016 0.133 0.005 0.208-0.149-0.021-0.352-0.016-0.523 0.128-0.016 0.011-0.027 0.032-0.021 0.053s0.016 0.037 0.032 0.043 0.043 0 0.059-0.011c0.133-0.112 0.272-0.053 0.395-0.005-0.011 0.037-0.021 0.069-0.037 0.101-0.149-0.059-0.56-0.171-0.629 0.395-0.299-0.848 0.304-0.933 0.64-0.923v0zM26.277 28.602c0 0 0 0.016 0 0.016 0.384 0.011 1.093 0.501 0.224 1.040 0.288-0.373-0.245-0.507-0.309-0.517-0.005-0.011 0-0.027 0-0.037 0.128 0.005 0.251-0.059 0.485 0.171 0.016 0.016 0.021 0.032 0.043 0.037s0.037-0.005 0.048-0.021c0.011-0.016 0.011-0.037 0.005-0.059-0.107-0.24-0.411-0.352-0.571-0.389 0.016-0.075 0.037-0.155 0.075-0.24v0zM5.53 28.682c0.011 0.059 0.011 0.123-0.005 0.192-0.149-0.021-0.357-0.027-0.539 0.123-0.016 0.011-0.027 0.032-0.027 0.048 0 0.021 0.016 0.037 0.037 0.048 0.021 0.005 0.043 0 0.053-0.011 0.133-0.112 0.277-0.053 0.4-0.005-0.032 0.075-0.059 0.128-0.091 0.187-0.139-0.059-0.389-0.149-0.619 0.075 0.091-0.624 0.533-0.677 0.789-0.656v0zM40.89 29.098c0.171 0.053 1.115 0.421 0.325 1.141 0.197-0.576-0.352-0.629-0.448-0.64 0-0.027 0-0.053 0.005-0.080 0.144 0.016 0.331 0.016 0.411 0.197 0.005 0.021 0.021 0.032 0.043 0.037s0.043-0.005 0.053-0.021c0.011-0.016 0.011-0.037 0-0.059-0.101-0.235-0.325-0.341-0.469-0.379 0.016-0.069 0.037-0.144 0.080-0.197v0zM32.426 29.604c0.032 0.053 0.059 0.123 0.080 0.203-0.144 0.032-0.389 0.139-0.501 0.389-0.011 0.016-0.011 0.037 0 0.059 0.011 0.016 0.032 0.027 0.053 0.021s0.037-0.016 0.043-0.037c0.085-0.197 0.304-0.181 0.448-0.197 0 0.027 0.005 0.053 0.005 0.085-0.123 0.011-0.683 0.075-0.491 0.635-0.832-0.763 0.277-1.136 0.363-1.157v0zM17.818 29.652c0.021 0.043 0.048 0.075 0.064 0.128-0.144 0.048-0.341 0.144-0.437 0.363-0.011 0.016-0.011 0.037 0 0.059 0.011 0.016 0.032 0.027 0.053 0.021s0.037-0.016 0.043-0.037c0.080-0.181 0.272-0.181 0.411-0.197 0.016 0.080 0.021 0.16 0.021 0.235-0.176-0.032-0.565 0.011-0.688 0.336-0.336-0.352 0.107-0.816 0.533-0.907zM14.175 29.786c0.389 0.075 1.104 0.411 0.309 1.141 0.272-0.405-0.283-0.517-0.427-0.539-0.016-0.043-0.016-0.091-0.016-0.139 0.155 0.016 0.405 0.011 0.491 0.197 0.005 0.021 0.021 0.032 0.043 0.037 0.021 0 0.043-0.005 0.053-0.021s0.011-0.037 0-0.059c-0.101-0.235-0.389-0.363-0.555-0.411 0.021-0.091 0.064-0.155 0.101-0.208v0zM5.946 30.596v0c0.037 0.064 0.075 0.096 0.107 0.171-0.139 0.053-0.293 0.149-0.379 0.341-0.011 0.016-0.005 0.037 0.005 0.059 0.011 0.016 0.032 0.027 0.048 0.021 0.021 0 0.037-0.016 0.043-0.037 0.069-0.155 0.208-0.176 0.336-0.187 0.016 0.080 0.016 0.155 0.005 0.224-0.181-0.005-0.496 0.027-0.336 0.485-0.501-0.613-0.112-1.061 0.171-1.077v0z"></path>
</symbol>
<symbol id="icon-meeple" viewBox="0 0 32 32">
<title>meeple</title>
<path class="path1" d="M31.997 13.766c0.185-4.402-10.353-6.546-10.81-7.047-0.228-0.25 0.528-6.724-5.188-6.719-5.716-0.005-4.96 6.469-5.188 6.719-0.457 0.502-10.994 2.645-10.81 7.047s5.776 2.141 6.969 3.437c1.043 1.134-4.889 8.393-5.553 13.003-0.216 1.502 0.206 1.794 1.666 1.794 2.648 0 5.177-0.002 7.505-0.002 1.052 0 1.426-0.604 1.969-1.437 1.201-1.844 2.652-4.808 3.442-4.807s2.24 2.964 3.442 4.807c0.543 0.833 0.916 1.437 1.968 1.437 2.328 0 4.857 0.002 7.505 0.002 1.46 0 1.883-0.292 1.666-1.794-0.663-4.61-6.596-11.869-5.553-13.003 1.193-1.295 6.785 0.966 6.969-3.437z"></path>
</symbol>
<symbol id="icon-paper" viewBox="0 0 24 24">
<title>paper</title>
<path class="path1" d="M5 0h14q1.242 0 2.121 0.879t0.879 2.121v18q0 1.242-0.879 2.121t-2.121 0.879h-14q-1.242 0-2.121-0.879t-0.879-2.121v-18q0-1.242 0.879-2.121t2.121-0.879zM8 17h8q0.414 0 0.707 0.293t0.293 0.707-0.293 0.707-0.707 0.293h-8q-0.414 0-0.707-0.293t-0.293-0.707 0.293-0.707 0.707-0.293zM8 13h8q0.414 0 0.707 0.293t0.293 0.707-0.293 0.707-0.707 0.293h-8q-0.414 0-0.707-0.293t-0.293-0.707 0.293-0.707 0.707-0.293zM19 2h-14q-0.414 0-0.707 0.293t-0.293 0.707v18q0 0.414 0.293 0.707t0.707 0.293h14q0.414 0 0.707-0.293t0.293-0.707v-18q0-0.414-0.293-0.707t-0.707-0.293zM8 9h8q0.414 0 0.707 0.293t0.293 0.707-0.293 0.707-0.707 0.293h-8q-0.414 0-0.707-0.293t-0.293-0.707 0.293-0.707 0.707-0.293zM8 5h4q0.414 0 0.707 0.293t0.293 0.707-0.293 0.707-0.707 0.293h-4q-0.414 0-0.707-0.293t-0.293-0.707 0.293-0.707 0.707-0.293z"></path>
</symbol>
<symbol id="icon-link" viewBox="0 0 24 24">
<title>link</title>
<path class="path1" d="M17 1q1.18 0 2.277 0.445t1.965 1.312 1.313 1.965 0.445 2.277q0 1.172-0.449 2.277t-1.309 1.965l-3 3q-0.086 0.086-0.258 0.242-0.836 0.742-1.867 1.129t-2.117 0.387q-1.367 0-2.586-0.586-0.914-0.43-1.656-1.172t-1.172-1.656q0.586-0.586 1.414-0.586 0.289 0 0.586 0.086 0.508 0.82 1.328 1.328 0.961 0.586 2.086 0.586 0.781 0 1.516-0.297t1.313-0.875l3-3q0.578-0.578 0.875-1.313t0.297-1.516-0.297-1.516-0.875-1.313-1.313-0.875-1.516-0.297-1.516 0.297-1.313 0.875l-2.102 2.102q-1-0.273-2.070-0.273-0.172 0-0.484 0.016 0.156-0.172 0.242-0.258l3-3q0.859-0.859 1.965-1.309t2.277-0.449zM10 8q1.367 0 2.586 0.586 0.914 0.43 1.656 1.172t1.172 1.656q-0.586 0.586-1.414 0.586-0.289 0-0.586-0.086-0.508-0.82-1.328-1.328-0.961-0.586-2.086-0.586-0.781 0-1.516 0.297t-1.313 0.875l-3 3q-0.578 0.578-0.875 1.313t-0.297 1.516 0.297 1.516 0.875 1.313 1.313 0.875 1.516 0.297 1.516-0.297 1.313-0.875l2.102-2.102q1 0.273 2.070 0.273 0.172 0 0.484-0.016-0.156 0.172-0.242 0.258l-3 3q-0.867 0.867-1.965 1.313t-2.277 0.445q-1.172 0-2.277-0.449t-1.965-1.309q-0.867-0.867-1.313-1.965t-0.445-2.277 0.445-2.277 1.313-1.965l3-3q0.086-0.086 0.258-0.242 0.836-0.742 1.867-1.129t2.117-0.387z"></path>
</symbol>
</defs>
</svg>
